<svg version="1.1" id="Layer_1" xmlns="http://www.w3.org/2000/svg" xmlns:xlink="http://www.w3.org/1999/xlink" x="0px" y="0px" viewBox="0 0 784.1 86" style="enable-background:new 0 0 784.1 86;" xml:space="preserve">
 <style type="text/css">
  .st0{fill:#DC0005;}
 </style>
 <g>
  <path class="st0" d="M49.5,0.4L0,85.6h30.7L37.9,73h58.5l7.2,12.6h31.4L85.6,0.4H49.5z M254,0.4h-36.1l-32.2,30h-14.5V0h-27.8v85.6
		h27.8V54.6h18.1l34.3,31.1h37.9l-50.9-45.5L254,0.4z M369.7,41.2c5.1-2.5,10.1-7.6,10.1-18.1c0-14.1-10.1-22.8-27.1-22.8h-83.1V86
		h86.4c17,0,29.3-7.9,29.3-23.8C385.2,48.4,376.2,42.6,369.7,41.2 M437.6,0.4L388.1,86h30.7l7.2-12.6h58.5l7.2,12.6h31.4L473.7,0.4
		H437.6z M620.4,60L572,0.4h-40.5V86H559V26l48.4,59.6h40.5V0.4h-27.5V60z M732.8,40.1l43.7-39.7H740l-31.8,30h-14.5V0H666v85.6
		h27.8V54.6h18.1l34.3,31.1h37.9L732.8,40.1z M296.7,20.6H344c5.1,0,8.7,1.8,8.7,6.5s-3.6,6.1-8.7,6.1h-47.3V20.6z M49.5,52.8
		l17.7-31.1l17.7,31.1H49.5z M437.6,52.8l17.7-31.1L473,52.8H437.6z M347.6,65.4H297V51.7h50.6c5.4,0,9.4,1.8,9.4,6.9
		C357,63.2,353,65.4,347.6,65.4">
  </path>
 </g>
</svg>