<?xml version="1.0" encoding="UTF-8"?>
<!DOCTYPE svg PUBLIC "-//W3C//DTD SVG 1.1//EN" "http://www.w3.org/Graphics/SVG/1.1/DTD/svg11.dtd">
<svg xmlns="http://www.w3.org/2000/svg" version="1.1" width="3840px" height="2160px" style="shape-rendering:geometricPrecision; text-rendering:geometricPrecision; image-rendering:optimizeQuality; fill-rule:evenodd; clip-rule:evenodd" xmlns:xlink="http://www.w3.org/1999/xlink">
<g><path style="opacity:0.995" fill="#fe3628" d="M 252.5,866.5 C 320.17,866.167 387.837,866.5 455.5,867.5C 530.755,1008.34 605.755,1149.34 680.5,1290.5C 627.833,1291.83 575.167,1291.83 522.5,1290.5C 509.833,1267.17 497.167,1243.83 484.5,1220.5C 397.835,1219.33 311.169,1219.17 224.5,1220C 211.627,1243.58 198.627,1267.08 185.5,1290.5C 130.503,1291.67 75.503,1291.83 20.5,1291C 97.7187,1149.39 175.052,1007.89 252.5,866.5 Z M 352.5,988.5 C 375.979,1028.78 398.979,1069.45 421.5,1110.5C 375.833,1111.83 330.167,1111.83 284.5,1110.5C 307.179,1069.81 329.845,1029.14 352.5,988.5 Z"/></g>
<g><path style="opacity:0.994" fill="#fe3628" d="M 701.5,866.5 C 749.167,866.5 796.833,866.5 844.5,866.5C 844.5,916.167 844.5,965.833 844.5,1015.5C 863.503,1015.67 882.503,1015.5 901.5,1015C 956.202,965.296 1011.2,915.963 1066.5,867C 1136.17,866.333 1205.83,866.333 1275.5,867C 1196.66,938.344 1117.99,1009.84 1039.5,1081.5C 1124.29,1151.11 1208.95,1220.95 1293.5,1291C 1222.5,1291.67 1151.5,1291.67 1080.5,1291C 1020.54,1241.38 960.874,1191.38 901.5,1141C 899.649,1140.16 897.816,1139.33 896,1138.5C 881,1139.83 866,1139.83 851,1138.5C 850.749,1140.43 850.249,1142.27 849.5,1144C 850.144,1193.11 850.477,1242.27 850.5,1291.5C 800.833,1291.5 751.167,1291.5 701.5,1291.5C 701.5,1149.83 701.5,1008.17 701.5,866.5 Z"/></g>
<g><path style="opacity:0.995" fill="#fe3628" d="M 1320.5,866.5 C 1464.17,866.333 1607.83,866.5 1751.5,867C 1794.09,876.919 1821.92,902.753 1835,944.5C 1841.98,975.427 1840.32,1006.09 1830,1036.5C 1824.64,1052.41 1815.47,1065.58 1802.5,1076C 1815.05,1082.89 1824.55,1092.72 1831,1105.5C 1847.91,1141.09 1851.91,1178.09 1843,1216.5C 1834.95,1246.53 1817.78,1269.7 1791.5,1286C 1786.64,1288.07 1781.64,1289.73 1776.5,1291C 1624.5,1291.67 1472.5,1291.67 1320.5,1291C 1320.47,1149.63 1320.47,1008.13 1320.5,866.5 Z M 1454.5,975.5 C 1529.17,975.333 1603.83,975.5 1678.5,976C 1693.3,979.746 1699.47,989.246 1697,1004.5C 1693.96,1012.87 1688.13,1018.04 1679.5,1020C 1604.5,1020.5 1529.5,1020.67 1454.5,1020.5C 1454.5,1005.5 1454.5,990.5 1454.5,975.5 Z M 1454.5,1128.5 C 1531.5,1128.33 1608.5,1128.5 1685.5,1129C 1696.95,1131.62 1703.28,1138.79 1704.5,1150.5C 1701.69,1166.34 1692.19,1174 1676,1173.5C 1602.1,1173.02 1528.27,1172.69 1454.5,1172.5C 1454.5,1157.83 1454.5,1143.17 1454.5,1128.5 Z"/></g>
<g><path style="opacity:0.995" fill="#fe3628" d="M 2095.5,866.5 C 2162.84,866.167 2230.17,866.5 2297.5,867.5C 2372.37,1008.75 2447.37,1149.91 2522.5,1291C 2470.17,1291.67 2417.83,1291.67 2365.5,1291C 2352.45,1268.41 2339.79,1245.57 2327.5,1222.5C 2326.37,1221.74 2325.21,1221.07 2324,1220.5C 2239,1221.83 2154,1221.83 2069,1220.5C 2066.87,1222.09 2065.2,1224.09 2064,1226.5C 2052.42,1247.99 2040.59,1269.33 2028.5,1290.5C 1973.84,1291.5 1919.17,1291.83 1864.5,1291.5C 1941.02,1149.62 2018.02,1007.96 2095.5,866.5 Z M 2195.5,988.5 C 2219.31,1028.78 2242.65,1069.44 2265.5,1110.5C 2219.5,1111.67 2173.5,1111.83 2127.5,1111C 2150.56,1070.38 2173.23,1029.55 2195.5,988.5 Z"/></g>
<g><path style="opacity:0.995" fill="#fe3628" d="M 2547.5,866.5 C 2623.83,866.333 2700.17,866.5 2776.5,867C 2848.72,964.886 2920.55,1063.05 2992,1161.5C 2992.5,1063.17 2992.67,964.834 2992.5,866.5C 3041.83,866.5 3091.17,866.5 3140.5,866.5C 3140.5,1008.17 3140.5,1149.83 3140.5,1291.5C 3063.5,1291.67 2986.5,1291.5 2909.5,1291C 2839,1196.5 2768.5,1102 2698,1007.5C 2697.5,1102.17 2697.33,1196.83 2697.5,1291.5C 2647.5,1291.5 2597.5,1291.5 2547.5,1291.5C 2547.5,1149.83 2547.5,1008.17 2547.5,866.5 Z"/></g>
<g><path style="opacity:0.995" fill="#fe3628" d="M 3226.5,866.5 C 3274.17,866.5 3321.83,866.5 3369.5,866.5C 3369.5,916.167 3369.5,965.833 3369.5,1015.5C 3388.17,1015.67 3406.84,1015.5 3425.5,1015C 3480.69,965.901 3535.69,916.568 3590.5,867C 3660.5,866.333 3730.5,866.333 3800.5,867C 3721.66,938.344 3642.99,1009.84 3564.5,1081.5C 3649.02,1150.93 3733.35,1220.59 3817.5,1290.5C 3746.5,1291.67 3675.5,1291.83 3604.5,1291C 3543.67,1240.17 3482.83,1189.33 3422,1138.5C 3407,1139.83 3392,1139.83 3377,1138.5C 3376.59,1138.96 3376.09,1139.29 3375.5,1139.5C 3374.5,1190.16 3374.17,1240.83 3374.5,1291.5C 3325.17,1291.5 3275.83,1291.5 3226.5,1291.5C 3226.5,1149.83 3226.5,1008.17 3226.5,866.5 Z"/></g>
</svg>
