<?xml version="1.0" encoding="UTF-8"?>
<svg version="1.1" xmlns="http://www.w3.org/2000/svg" width="180" height="180">
<path d="M0 0 C59.4 0 118.8 0 180 0 C180 59.4 180 118.8 180 180 C120.6 180 61.2 180 0 180 C0 120.6 0 61.2 0 0 Z " fill="#FEFEFE" transform="translate(0,0)"/>
<path d="M0 0 C2.875 0.9375 2.875 0.9375 4.875 3.9375 C5.01721065 6.53995498 5.06302932 9.02867684 5 11.625 C4.99097656 12.32689453 4.98195313 13.02878906 4.97265625 13.75195312 C4.94913704 15.48061525 4.91326713 17.20910145 4.875 18.9375 C6.4528125 19.0303125 6.4528125 19.0303125 8.0625 19.125 C17.18198998 20.27710639 25.78792047 24.1689469 32.875 29.9375 C36.09641262 28.54787103 37.9099867 26.954198 40.1875 24.3125 C42.94791814 21.45094585 43.5537921 20.98489133 47.6875 20.375 C50.875 20.9375 50.875 20.9375 52.875 22.9375 C53.4375 25.5625 53.4375 25.5625 52.875 28.9375 C51.25783792 31.13312476 49.50541538 33.05695091 47.6015625 35.0078125 C45.83014674 36.98763011 44.63910405 38.3855884 43.875 40.9375 C44.82407745 43.17192311 44.82407745 43.17192311 46.5 45.375 C50.88271896 52.14006848 53.875 59.81424187 53.875 67.9375 C55.21304688 67.90269531 55.21304688 67.90269531 56.578125 67.8671875 C58.33382812 67.84011719 58.33382812 67.84011719 60.125 67.8125 C61.28515625 67.78929688 62.4453125 67.76609375 63.640625 67.7421875 C66.72621433 67.92851536 68.3825105 68.15715035 70.875 69.9375 C71.875 72.8125 71.875 72.8125 71.875 75.9375 C70.328125 78.1171875 70.328125 78.1171875 67.875 79.9375 C64.421875 80.328125 64.421875 80.328125 60.625 80.1875 C59.36171875 80.15140625 58.0984375 80.1153125 56.796875 80.078125 C55.83265625 80.03171875 54.8684375 79.9853125 53.875 79.9375 C53.813125 80.989375 53.75125 82.04125 53.6875 83.125 C52.5032301 92.51575993 48.17253545 101.21823406 42.875 108.9375 C43.44089844 109.49179688 44.00679688 110.04609375 44.58984375 110.6171875 C45.32332031 111.34164062 46.05679688 112.06609375 46.8125 112.8125 C47.54339844 113.53179687 48.27429688 114.25109375 49.02734375 114.9921875 C51.38157485 117.47084942 51.8327129 118.44062657 52.125 121.875 C51.875 124.9375 51.875 124.9375 50.6875 126.8125 C48.18440675 128.36614409 46.79000789 128.32588319 43.875 127.9375 C41.37527017 125.74167568 39.33060232 123.32364564 37.15625 120.80859375 C35.02925453 118.64048238 35.02925453 118.64048238 32.26171875 119.046875 C29.72083765 119.88898144 29.72083765 119.88898144 27.1875 121.75 C20.15339367 126.39516456 13.23279279 128.39828756 4.875 128.9375 C4.89820312 129.90171875 4.92140625 130.8659375 4.9453125 131.859375 C4.96335937 133.12265625 4.98140625 134.3859375 5 135.6875 C5.02320312 136.94046875 5.04640625 138.1934375 5.0703125 139.484375 C4.88977259 142.67632058 4.73573573 144.3820896 2.875 146.9375 C0 147.9375 0 147.9375 -3.125 147.9375 C-5.3046875 146.421875 -5.3046875 146.421875 -7.125 143.9375 C-7.4161521 141.20067029 -7.50822418 138.89809961 -7.375 136.1875 C-7.35695313 135.49011719 -7.33890625 134.79273438 -7.3203125 134.07421875 C-7.27338554 132.36138461 -7.20164605 130.64926176 -7.125 128.9375 C-8.72601563 128.72673828 -8.72601563 128.72673828 -10.359375 128.51171875 C-18.4244718 127.28187515 -24.7282629 124.2307182 -31.64453125 119.94921875 C-34.03090014 118.67634468 -34.03090014 118.67634468 -36.20703125 119.54296875 C-38.31520747 121.07579749 -40.13479008 122.7422349 -42 124.5625 C-44.72368824 126.99708167 -45.76911238 127.87035139 -49.4375 128.5625 C-52.125 127.9375 -52.125 127.9375 -54.0625 126.8125 C-55.70238862 123.9185789 -54.96742309 122.09079008 -54.125 118.9375 C-52.05859375 116.3828125 -52.05859375 116.3828125 -49.5625 114.0625 C-48.32306641 112.89074219 -48.32306641 112.89074219 -47.05859375 111.6953125 C-46.42050781 111.11523438 -45.78242187 110.53515625 -45.125 109.9375 C-46.58992928 105.96754165 -48.50467584 102.46916073 -50.625 98.8125 C-53.86280476 92.90905972 -55.46933105 87.61461845 -56.125 80.9375 C-57.23359375 80.91171875 -58.3421875 80.8859375 -59.484375 80.859375 C-60.94795547 80.80308344 -62.41149562 80.74573633 -63.875 80.6875 C-64.60460937 80.67332031 -65.33421875 80.65914063 -66.0859375 80.64453125 C-69.61631173 80.48405969 -71.76598904 80.20133131 -74.64453125 78.0859375 C-76.125 75.9375 -76.125 75.9375 -76.0625 72.8125 C-75.125 69.9375 -75.125 69.9375 -72.125 67.9375 C-69.35844676 67.79504103 -66.69846694 67.74980555 -63.9375 67.8125 C-63.18791016 67.82152344 -62.43832031 67.83054687 -61.66601562 67.83984375 C-59.81887346 67.86337422 -57.97189588 67.89924439 -56.125 67.9375 C-56.05023438 67.21046875 -55.97546875 66.4834375 -55.8984375 65.734375 C-54.67167991 56.35328756 -51.35850074 48.78775111 -46.125 40.9375 C-46.30092105 38.10573856 -46.98187785 37.08425316 -48.97265625 35.04296875 C-49.70355469 34.41003906 -50.43445313 33.77710938 -51.1875 33.125 C-54.27543691 30.16963999 -55.04540907 29.43096375 -55.75 25.0625 C-55.125 21.9375 -55.125 21.9375 -53.125 19.9375 C-48.43396856 19.69060361 -46.26916597 19.99670202 -42.59765625 23.015625 C-40.36064449 25.26323871 -38.20985246 27.54860656 -36.125 29.9375 C-35.23039062 29.39480469 -34.33578125 28.85210937 -33.4140625 28.29296875 C-25.04855823 23.30778268 -17.16381288 18.65521352 -7.125 18.9375 C-7.17140625 17.90109375 -7.2178125 16.8646875 -7.265625 15.796875 C-7.30315275 14.42711221 -7.33955184 13.05731818 -7.375 11.6875 C-7.40851563 11.00558594 -7.44203125 10.32367188 -7.4765625 9.62109375 C-7.54390928 6.15273434 -7.37745664 4.28259631 -5.3046875 1.44921875 C-3.125 -0.0625 -3.125 -0.0625 0 0 Z " fill="#D20439" transform="translate(92.125,16.0625)"/>
<path d="M0 0 C12.85714286 2.85714286 12.85714286 2.85714286 18 7 C16.46986989 10.55939356 14.36373709 13.02831385 11.6875 15.8125 C10.92824219 16.62332031 10.16898438 17.43414062 9.38671875 18.26953125 C7 20 7 20 4.33203125 19.82421875 C2 19 2 19 0 18 C0 12.06 0 6.12 0 0 Z " fill="#FEFCFC" transform="translate(95,54)"/>
<path d="M0 0 C4.56030824 3.80475422 8.85089392 7.74969621 13 12 C12.34 13.98 11.68 15.96 11 18 C5.06 18 -0.88 18 -7 18 C-5.79662881 11.10796502 -3.67864914 5.93919307 0 0 Z " fill="#FDF6F8" transform="translate(62,68)"/>
<path d="M0 0 C2.79927922 1.86267828 4.98346749 4.10145347 7.328125 6.5078125 C8.22015625 7.41789062 9.1121875 8.32796875 10.03125 9.265625 C10.70671875 9.96429688 11.3821875 10.66296875 12.078125 11.3828125 C9.85927607 13.8482002 7.79586941 15.17848248 4.765625 16.5078125 C4.02699219 16.84039062 3.28835937 17.17296875 2.52734375 17.515625 C0.078125 18.3828125 0.078125 18.3828125 -5.921875 19.3828125 C-5.921875 13.1128125 -5.921875 6.8428125 -5.921875 0.3828125 C-1.921875 -0.6171875 -1.921875 -0.6171875 0 0 Z " fill="#FEFBFC" transform="translate(100.921875,106.6171875)"/>
<path d="M0 0 C5.94 0 11.88 0 18 0 C18.33 1.98 18.66 3.96 19 6 C17.26885498 8.31423575 15.78930706 9.97225708 13.6875 11.875 C12.91889648 12.62136719 12.91889648 12.62136719 12.13476562 13.3828125 C8.32380022 17 8.32380022 17 6 17 C4.98422665 15.30099815 3.9880102 13.59029549 3 11.875 C2.1646875 10.44800781 2.1646875 10.44800781 1.3125 8.9921875 C0 6 0 6 0 0 Z " fill="#FEFAFB" transform="translate(56,95)"/>
<path d="M0 0 C3 1 3 1 4.38671875 3.58203125 C4.81597656 4.64808594 5.24523437 5.71414062 5.6875 6.8125 C6.34298828 8.39998047 6.34298828 8.39998047 7.01171875 10.01953125 C8 13 8 13 8 17 C2.06 17 -3.88 17 -10 17 C-10.66 15.02 -11.32 13.04 -12 11 C-11.46890625 10.54109375 -10.9378125 10.0821875 -10.390625 9.609375 C-6.81675301 6.50506283 -3.28145941 3.41818688 0 0 Z " fill="#FDF8F9" transform="translate(119,69)"/>
<path d="M0 0 C0 6.27 0 12.54 0 19 C-1.65 19.33 -3.3 19.66 -5 20 C-7.60546875 17.9453125 -7.60546875 17.9453125 -10.1875 15.125 C-13.24470085 11.60317102 -13.24470085 11.60317102 -17 9 C-16 6 -16 6 -13.8203125 4.6484375 C-12.93085937 4.22820313 -12.04140625 3.80796875 -11.125 3.375 C-9.79855469 2.73691406 -9.79855469 2.73691406 -8.4453125 2.0859375 C-5.44800113 0.75486312 -3.30396317 0 0 0 Z " fill="#FDF5F7" transform="translate(86,54)"/>
<path d="M0 0 C5.94 0 11.88 0 18 0 C16.875 9 16.875 9 14.9375 12.5 C14.39416016 13.50546875 14.39416016 13.50546875 13.83984375 14.53125 C13.56269531 15.0159375 13.28554687 15.500625 13 16 C8.7751657 16 7.07947058 13.63111583 4.25 10.8125 C3.73050781 10.32974609 3.21101563 9.84699219 2.67578125 9.34960938 C1.203125 7.89453125 1.203125 7.89453125 -1 5 C-0.67 3.35 -0.34 1.7 0 0 Z " fill="#FEFCFC" transform="translate(108,95)"/>
<path d="M0 0 C1.32 0.33 2.64 0.66 4 1 C4 6.94 4 12.88 4 19 C-1.48505778 19 -2.91677056 18.90985375 -7.375 16.5 C-8.24898438 16.0359375 -9.12296875 15.571875 -10.0234375 15.09375 C-10.67570312 14.7328125 -11.32796875 14.371875 -12 14 C-10.41043716 10.18683522 -7.99239303 7.627216 -5.125 4.6875 C-4.26132813 3.78386719 -3.39765625 2.88023438 -2.5078125 1.94921875 C-1.26644531 0.98435547 -1.26644531 0.98435547 0 0 Z " fill="#FEFAFB" transform="translate(82,106)"/>
</svg>
