<svg version="1.1" id="Layer_1" xmlns="http://www.w3.org/2000/svg" xmlns:xlink="http://www.w3.org/1999/xlink" x="0px" y="0px" viewBox="0 0 89.8 107.1" style="enable-background:new 0 0 89.8 107.1;" xml:space="preserve">
 <style type="text/css">
  .st0{fill:#005696;}
 </style>
 <g>
  <path class="st0" d="M15.6,9.2v88.7h-3.1V9.2H15.6z M9.5,18.4v70.2H6.3V18.4H9.5z M3.1,27.6v52H0v-52H3.1z M68,107.1v-52H21.8v52
		h-3.1V0h3.1v52H68V0h3.1v107.1H68z M74.3,98V9.3h3.1V98C77.4,98,74.3,98,74.3,98z M80.4,88.7V18.5h3.1v70.2H80.4z M86.7,79.6v-52
		h3.1v52H86.7z M61.8,48.8h-34h-3.1V9.1h3.1v36.6h34V9.1H65v39.7H61.8z M57.5,42.6H34.1H31V18.3h3.1v21.2h21.6V18.3h3.1v24.3
		C58.8,42.6,57.5,42.6,57.5,42.6z M50.6,36.6H40.1H37v-9.1h3.1v6h9.3v-6h3.1v9.1C52.6,36.6,50.6,36.6,50.6,36.6z M27.8,58h34h3.1
		v39.7h-3.1V61.2h-34v36.6h-3.1V58.1C24.7,58.1,27.9,58.1,27.8,58z M32.2,64.2h23.4h3.1v24.3h-3.1V67.4H34v21.2h-3.1V64.3
		C30.9,64.3,32.2,64.3,32.2,64.2z M39,70.2h10.5h3.1v9.1h-3.1v-6h-9.3v6h-3.1v-9.1C37.1,70.3,39,70.3,39,70.2z">
  </path>
 </g>
</svg>