<svg version="1.1" id="svg8" inkscape:version="0.92.3 (2405546, 2018-03-11)" xmlns:rdf="http://www.w3.org/1999/02/22-rdf-syntax-ns#" xmlns:cc="http://creativecommons.org/ns#" xmlns:dc="http://purl.org/dc/elements/1.1/" xmlns:svg="http://www.w3.org/2000/svg" xmlns:inkscape="http://www.inkscape.org/namespaces/inkscape" xmlns:sodipodi="http://sodipodi.sourceforge.net/DTD/sodipodi-0.dtd" xmlns="http://www.w3.org/2000/svg" xmlns:xlink="http://www.w3.org/1999/xlink" x="0px" y="0px" viewBox="363.9 -40.4 81.1 190.6" style="enable-background:new 363.9 -40.4 81.1 190.6;" xml:space="preserve">
 <style type="text/css">
  .st0{fill:#00559F;}
 </style>
 <sodipodi:namedview inkscape:pageopacity="0" inkscape:document-units="mm" fit-margin-right="0" inkscape:current-layer="layer1" inkscape:pageshadow="2" fit-margin-bottom="0" inkscape:window-maximized="1" inkscape:window-width="1920" inkscape:window-x="-9" inkscape:window-y="-9" inkscape:window-height="1001" id="base" showgrid="false" borderopacity="1.0" bordercolor="#666666" inkscape:cy="-1.7976375" fit-margin-top="0" inkscape:zoom="0.98994949" inkscape:cx="123.49222" fit-margin-left="0" pagecolor="#00ffff">
 </sodipodi:namedview>
 <g id="layer1" transform="translate(-12.734993,-84.199)" inkscape:groupmode="layer" inkscape:label="Layer 1">
  <path id="path671" inkscape:connector-curvature="0" class="st0" d="M392.7,202c1.1,0.3,6.9,2.2,6.9,2.2c4.2,1.8,7.7,3,11.6,3.7
		c-3.4,1.7-5.7,5.1-5.7,9.1c0,4.3,2.7,7.7,6.5,9c1.5,0.7,1.7,1.3,2.1,2.6c0.4,1.1-0.8,5.7-0.8,5.7h2.6c0,0,1.7-2.1,4.1-5.4
		c1.1-1.4,2.7-4.4,3.6-5.7c1.3-1.9,2.3-3.7,2.3-6.3c0-3.5-1.8-6.6-4.5-8.5c0.6,0,0.8-0.1,0.8-0.1c5.9-0.3,11.4-2.6,11.4-2.6
		c18.8-6.4,23-22.9,23-22.9c0.7-2.8,1.1-5.8,1.1-8.8c0-10.1-5.3-19.1-12.3-25.4c0,0-2.1-2.1-3.9-3.4c-3.6-2.8-15.3-9.1-15.3-9.1
		s-19.6-10.7-24.6-13.8c-4.9-3.1-7.3-5.5-7.3-5.5c-3.8-3.2-6.2-7.6-6.2-13.2c0-8.7,7.9-14.8,17-16.3c0,0,0.6-0.1,1.5-0.1v33.3
		l18,9.9V79.2c0.1-1.3-0.5-5.9,4.4-7.2l2.6-0.7v-2.6h-31.9v2.6l2.5,0.7c5,1.3,4.3,5.9,4.5,7.2v3.4c-0.7,0.1-1.5,0.1-2.2,0.2
		c-16.1,2.3-27.8,15-27.8,30.3c0,11.4,5.4,18.6,14.1,25.1c4.5,3.4,7.5,4.8,13,7.8l3,1.7v32.6c-0.1,1.4,0.5,5.9-4.4,7.2l-2.6,0.7v2.5
		h31.9v-2.5l-2.5-0.7c-5-1.3-4.3-5.9-4.5-7.2l0-22.5l3.5,2c0,0,10.5,5.1,14.6,14.4c4.1,9.3,1.4,22.6-14.8,28.4c0,0-19.3,6-36.8-10.4
		c0,0-6-6.3-9-14.8c-0.5-1.3-1-3.5-1-3.5h-2.5v32.3h2.1c0,0,1.3-1.9,2.4-2.8c0.3-0.2,0.5-0.4,0.8-0.6c1.4-0.9,3.4-2,8.4-0.8
		L392.7,202z M447.2,85.9v-1.5h-2.3l-1.2,1.9c-1.1,1.4-2.1,1.9-4.3,2.2c-2.5,0.3-5.7-1.1-5.7-1.1l-4.7-1.9v4.7
		c2,1.1,2.9,2.1,3.9,2.8c1.2,0.9,3.2,2.8,5.5,5.9c2.3,3.1,4,7,4.5,8.6c0.4,1.2,0.9,3.8,1.2,5.2l0.3,2h2.8L447.2,85.9z M405.2,54.3
		c0,5.7,4.7,10.4,10.4,10.4c5.8,0,10.4-4.7,10.4-10.4c0-5.8-4.7-10.4-10.4-10.4C409.8,43.8,405.2,48.5,405.2,54.3">
  </path>
 </g>
</svg>