<?xml version="1.0" encoding="UTF-8"?>
<svg version="1.1" xmlns="http://www.w3.org/2000/svg" width="512" height="512">
<path d="M0 0 C1.45768799 -0.00287018 1.45768799 -0.00287018 2.94482422 -0.00579834 C4.97819277 -0.00714575 7.01157037 -0.00355164 9.04492188 0.00488281 C12.11869024 0.01560299 15.19187433 0.00493758 18.265625 -0.0078125 C20.26041793 -0.00649065 22.2552105 -0.00392773 24.25 0 C25.14831543 -0.00404846 26.04663086 -0.00809692 26.97216797 -0.01226807 C34.34229323 0.04065103 40.62658484 1.11202267 48.125 2.265625 C48.455 35.595625 48.785 68.925625 49.125 103.265625 C74.535 77.855625 99.945 52.445625 126.125 26.265625 C144.66673228 35.53649114 144.66673228 35.53649114 152.8125 41.140625 C153.70114746 41.74358398 154.58979492 42.34654297 155.50537109 42.96777344 C166.74926407 50.65719815 177.20672689 58.92376456 187.125 68.265625 C185.49122624 72.40309502 182.49113419 75.18119856 179.39559937 78.25572205 C178.8033364 78.85181056 178.21107343 79.44789908 177.6008631 80.06205088 C175.61284146 82.06040017 173.61773329 84.05151884 171.62255859 86.04272461 C170.19642978 87.47320014 168.77071969 88.90409323 167.34539795 90.33537292 C163.46972934 94.22445018 159.58765958 98.10707765 155.70401716 101.98819041 C152.46183217 105.2293065 149.22262692 108.47339247 145.98337424 111.71743876 C138.33876426 119.37315135 130.68882843 127.02351355 123.03564453 134.6706543 C115.14491126 142.55535239 107.26338681 150.44917002 99.38633478 158.34753412 C92.62136697 165.1301302 85.8505927 171.90689143 79.07517874 178.67905241 C75.02952008 182.72289932 70.98611112 186.76893231 66.94831467 190.82063103 C63.14817964 194.63335882 59.34083137 198.43873457 55.52788544 202.23864937 C54.13215076 203.63202154 52.73895228 205.02793971 51.34853745 206.42662048 C49.44467947 208.34097522 47.53172751 210.24577286 45.61630249 212.14854431 C45.07289101 212.69933008 44.52947953 213.25011584 43.96960104 213.81759208 C34.80081229 222.86010725 24.02381615 227.265625 11.125 227.265625 C-8.21595938 225.68070643 -19.09509406 214.34476678 -32.09375 201.27392578 C-33.52305338 199.84405765 -34.9527985 198.41463097 -36.38294983 196.98561096 C-40.24841335 193.12071946 -44.10769468 189.24970829 -47.9658699 185.37754297 C-52.00482243 181.32605784 -56.04946841 177.28026461 -60.09350586 173.2338562 C-67.74356649 165.57758824 -75.38851608 157.91623792 -83.03162861 150.25303447 C-91.7362724 141.52600844 -100.44661999 132.80468482 -109.157444 124.08382821 C-127.06963594 106.15075119 -144.97467696 88.2105487 -162.875 70.265625 C-156.14068946 55.92521818 -135.47362224 45.31221291 -122.5 37.328125 C-121.81220459 36.904104 -121.12440918 36.48008301 -120.41577148 36.04321289 C-114.36796575 32.40308475 -108.24551879 29.45088439 -101.875 26.265625 C-76.465 51.675625 -51.055 77.085625 -24.875 103.265625 C-24.545 69.935625 -24.215 36.605625 -23.875 2.265625 C-15.58436805 0.99014316 -8.23529783 -0.03711423 0 0 Z " fill="#7D1848" transform="translate(243.875,-0.265625)"/>
<path d="M0 0 C4.07048352 1.621203 6.80387233 4.5247404 9.83151245 7.57754517 C10.70008556 8.4414383 10.70008556 8.4414383 11.5862056 9.32278383 C13.52694066 11.25553636 15.46044247 13.19536561 17.39404297 15.13525391 C18.78348023 16.52198131 20.17334266 17.90828284 21.56359863 19.29418945 C25.34107197 23.06253261 29.11217593 26.83719054 32.88191748 30.61326647 C36.82926687 34.5656766 40.78149067 38.51320763 44.73294067 42.46151733 C51.37260323 49.09753877 58.00803278 55.73777097 64.64111328 62.38037109 C72.30127469 70.05139939 79.96859016 77.71522036 87.63969696 85.37530196 C94.22864846 91.95516337 100.81367647 98.53893229 107.39547074 105.12595308 C111.32493639 109.05853126 115.25572752 112.98975896 119.19005966 116.91746902 C122.89308988 120.61470204 126.59115532 124.31683158 130.28552246 128.02272034 C131.63904006 129.37887261 132.99424423 130.7333441 134.35129166 132.0859642 C146.82053409 144.51828651 158.25731597 156.06832459 158.3125 174.8125 C158.1595608 193.83376667 147.77179875 204.82600523 134.96411133 217.53759766 C133.52885243 218.97664463 132.09445244 220.41654867 130.6608429 221.85723877 C126.78601891 225.7459624 122.89882019 229.62208836 119.00878358 233.49558687 C114.93597064 237.55450904 110.87336143 241.62362252 106.80924988 245.69125366 C99.99123147 252.51196899 93.16519232 259.32457529 86.33422852 266.13232422 C78.43012637 274.00975063 70.53860696 281.89961287 62.65369588 289.79624522 C55.0659521 297.39475038 47.46977763 304.98477156 39.86957359 312.57081223 C36.63444936 315.8001694 33.40227582 319.03243837 30.17240334 322.26704788 C26.37649876 326.06770924 22.57327941 329.86089386 18.76417351 333.64832306 C17.36472706 335.0421863 15.96784644 336.4386309 14.57367706 337.83777237 C12.6769848 339.74038165 10.77138456 341.63358157 8.8631134 343.52456665 C8.30786619 344.0858239 7.75261899 344.64708116 7.1805461 345.22534621 C3.34248208 349 3.34248208 349 0 349 C-1.8046875 347.19140625 -1.8046875 347.19140625 -3.875 344.5625 C-4.66648438 343.55960937 -5.45796875 342.55671875 -6.2734375 341.5234375 C-6.7075293 340.96237305 -7.14162109 340.40130859 -7.58886719 339.82324219 C-9.10362164 337.86611654 -10.63395752 335.921705 -12.1640625 333.9765625 C-23.28542202 319.74069749 -32.3855404 304.86211559 -41 289 C-36.83174934 284.02787705 -32.49242169 279.35280191 -27.89306641 274.77954102 C-27.1984902 274.08484427 -26.50391399 273.39014753 -25.78829002 272.67439938 C-23.56170794 270.44855771 -21.33172347 268.22616144 -19.1015625 266.00390625 C-17.71746473 264.6212806 -16.33359335 263.23842827 -14.94995117 261.85534668 C-9.84437193 256.75498903 -4.73442585 251.6590042 0.375 246.5625 C17.514375 229.4540625 17.514375 229.4540625 35 212 C2 211.67 -31 211.34 -65 211 C-66.2417064 202.30805523 -67.29911614 194.54460257 -67.23046875 185.921875 C-67.23001053 184.94438293 -67.22955231 183.96689087 -67.2290802 182.95977783 C-67.22609335 180.91978725 -67.21831664 178.87979819 -67.20581055 176.83984375 C-67.18745321 173.74210416 -67.18530226 170.64466361 -67.18554688 167.546875 C-67.18063323 165.54687245 -67.17480559 163.5468719 -67.16796875 161.546875 C-67.16685593 160.63621277 -67.1657431 159.72555054 -67.16459656 158.78729248 C-67.0425076 142.0425076 -67.0425076 142.0425076 -65 140 C-61.86510797 139.87457722 -58.75120163 139.81386331 -55.61499023 139.79467773 C-54.62973358 139.78477814 -53.64447693 139.77487854 -52.62936401 139.76467896 C-49.3557988 139.73296006 -46.08221905 139.70826563 -42.80859375 139.68359375 C-40.54557405 139.66303318 -38.28255827 139.64203696 -36.01954651 139.62062073 C-30.05025395 139.56530734 -24.08092621 139.51593907 -18.11157227 139.46777344 C-12.02552136 139.4176259 -5.93952184 139.3619047 0.14648438 139.30664062 C12.09761241 139.19894578 24.04878496 139.09752613 36 139 C35.60224082 138.60777158 35.20448164 138.21554316 34.79466915 137.81142902 C25.12246742 128.27166716 15.46705589 118.71519493 5.82952785 109.14040089 C1.16838542 104.5106132 -3.49819113 99.88658831 -8.17749023 95.27514648 C-12.69037968 90.82729686 -17.18858996 86.36508483 -21.67686272 81.89240074 C-23.39451919 80.18585789 -25.11746054 78.48461788 -26.845644 76.78873634 C-29.25955894 74.41817503 -31.65424092 72.02970126 -34.04516602 69.63598633 C-34.76876816 68.93395584 -35.4923703 68.23192535 -36.23789978 67.50862122 C-36.88441498 66.85385803 -37.53093018 66.19909485 -38.19703674 65.52449036 C-38.76578301 64.96127484 -39.33452929 64.39805933 -39.92051029 63.81777668 C-41 62 -41 62 -40.72874355 59.40259838 C-40.03766116 57.12416526 -39.24514509 55.21988337 -38.1015625 53.13671875 C-37.7104126 52.42290039 -37.3192627 51.70908203 -36.91625977 50.97363281 C-36.49014404 50.21920898 -36.06402832 49.46478516 -35.625 48.6875 C-34.95778931 47.49979004 -34.95778931 47.49979004 -34.27709961 46.28808594 C-24.74362823 29.59493926 -13.03301891 14.11599183 0 0 Z " fill="#165588" transform="translate(67,82)"/>
<path d="M0 0 C17.59571484 8.3665899 36.02471161 41.30592867 43 59 C42.57070198 62.36302279 41.36544957 64.00703206 38.99449158 66.36627197 C38.3536412 67.01124634 37.71279083 67.6562207 37.05252075 68.32073975 C36.3454599 69.01701477 35.63839905 69.71328979 34.90991211 70.43066406 C34.16849472 71.17251953 33.42707733 71.914375 32.66319275 72.67871094 C30.20828634 75.13152564 27.74292095 77.57354069 25.27734375 80.015625 C23.57418172 81.71319247 21.87168038 83.41142305 20.16981506 85.11029053 C15.6866725 89.58197345 11.194594 94.04457468 6.70062256 98.50537109 C2.11727066 103.0580465 -2.45761063 107.61921604 -7.03320312 112.1796875 C-16.01384443 121.12814487 -25.0036604 130.06732651 -34 139 C-32.73688492 139.01030746 -31.47376984 139.02061493 -30.17237854 139.03123474 C-18.29671055 139.12878658 -6.42109711 139.23150288 5.45448208 139.33933926 C11.5605376 139.39461766 17.66659787 139.44804538 23.77270508 139.49731445 C29.66009406 139.54488564 35.54742272 139.59722554 41.43474007 139.65294075 C43.68630544 139.67339725 45.93788738 139.69210474 48.18948174 139.70907402 C51.33137913 139.73304535 54.47316133 139.76310947 57.61499023 139.79467773 C59.02623421 139.80331093 59.02623421 139.80331093 60.46598816 139.81211853 C66.88594784 139.88594784 66.88594784 139.88594784 68 141 C69.10148975 147.79113979 69.15958251 154.68411911 69.16796875 161.546875 C69.17129715 162.52054016 69.17462555 163.49420532 69.17805481 164.49737549 C69.18308415 166.54446953 69.18546438 168.59157166 69.18530273 170.63867188 C69.18748447 173.7280058 69.20567037 176.81697922 69.22460938 179.90625 C69.2275453 181.91145714 69.22952876 183.91666594 69.23046875 185.921875 C69.23765427 186.82444031 69.24483978 187.72700562 69.25224304 188.65692139 C69.2253811 196.40670265 68.12746558 203.10774093 67 211 C17.5 211.495 17.5 211.495 -33 212 C-7.92 237.08 17.16 262.16 43 288 C31.80402205 310.39195591 18.55891314 331.04690718 1 349 C-3.09905363 347.37248105 -5.85622798 344.42855167 -8.90744019 341.35998535 C-9.49465603 340.77730062 -10.08187187 340.19461589 -10.68688214 339.59427404 C-12.65526018 337.63856604 -14.61640996 335.67576811 -16.57763672 333.71289062 C-17.98679307 332.3097181 -19.3963593 330.90695708 -20.80630493 329.50457764 C-24.6377046 325.69086525 -28.46257295 321.8706663 -32.28577566 318.04873848 C-34.67609329 315.65984207 -37.0678292 313.27237534 -39.46008682 310.88542175 C-47.81033708 302.55368453 -56.15539306 294.216785 -64.49560547 285.875 C-72.26171102 278.10769442 -80.03888291 270.35159444 -87.82137859 262.60071421 C-94.50721929 255.94106474 -101.18528541 249.27368607 -107.85740483 242.60028982 C-111.84020351 238.61698212 -115.82601976 234.63681559 -119.81966782 230.66438293 C-123.5796103 226.92386912 -127.32974109 223.17378445 -131.07271957 219.41629791 C-132.44383308 218.04310062 -133.81833147 216.67327297 -135.19654083 215.30719757 C-147.11991186 203.48198036 -156.1405947 192.67952573 -156.4375 175.125 C-156.26638491 152.31856731 -138.38335946 138.22562023 -123.40209961 123.28857422 C-122.0508205 121.93757774 -120.69976266 120.58635992 -119.34890747 119.23493958 C-115.70922934 115.59497645 -112.06649291 111.95808834 -108.4231689 108.32177496 C-104.60571277 104.51060221 -100.79111916 100.69656648 -96.97621155 96.88284302 C-89.76428581 89.67401596 -82.54981646 82.46774017 -75.33441311 75.26239407 C-67.11471962 67.05390729 -58.89789113 58.84255514 -50.68129337 50.63096976 C-33.79069844 33.75080608 -16.89653706 16.87421564 0 0 Z " fill="#1D4C7F" transform="translate(443,82)"/>
<path d="M0 0 C9.06106188 7.75448454 17.43214534 16.29337363 25.84667969 24.7331543 C27.18811898 26.07487641 28.52977999 27.41637688 29.87164307 28.75767517 C33.47636459 32.36211244 37.07801738 35.96960145 40.67908382 39.57768989 C44.45687286 43.36177474 48.23753684 47.14298513 52.0178833 50.92451477 C59.15935524 58.06908179 66.29827655 65.21619168 73.43626142 72.36424237 C81.56982055 80.50901956 89.70625499 88.65092182 97.84291983 96.79259622 C114.56512442 113.52522389 131.28375523 130.26141849 148 147 C140.23118252 163.40864547 115.05852305 175.18770032 100 184 C98.86691406 184.67675781 97.73382813 185.35351562 96.56640625 186.05078125 C95.59574219 186.61152344 94.62507813 187.17226563 93.625 187.75 C92.81289063 188.21921875 92.00078125 188.6884375 91.1640625 189.171875 C88.53100011 190.17947288 87.62350699 189.93117674 85 189 C83.35212326 187.72126675 83.35212326 187.72126675 81.70965576 186.07041931 C80.76743668 185.13438622 80.76743668 185.13438622 79.80618286 184.17944336 C79.12860931 183.49108398 78.45103577 182.80272461 77.75292969 182.09350586 C77.03058136 181.37159561 76.30823303 180.64968536 75.56399536 179.90589905 C73.17610992 177.51592217 70.79902831 175.11549153 68.421875 172.71484375 C66.7691481 171.05652219 65.11575798 169.39886136 63.46173096 167.74183655 C59.10841424 163.37706095 54.76418126 159.00335136 50.42175293 154.62774658 C45.21060071 149.3805232 39.98828081 144.14441745 34.76782227 138.90645599 C26.83660706 130.94614094 18.91974675 122.97179961 11 115 C10.67 147.67 10.34 180.34 10 214 C1.70936805 215.27548184 -5.63970217 216.30273923 -13.875 216.265625 C-14.84679199 216.26753845 -15.81858398 216.2694519 -16.81982422 216.27142334 C-18.85319277 216.27277075 -20.88657037 216.26917664 -22.91992188 216.26074219 C-25.99369024 216.25002201 -29.06687433 216.26068742 -32.140625 216.2734375 C-34.13541793 216.27211565 -36.1302105 216.26955273 -38.125 216.265625 C-39.02331543 216.26967346 -39.92163086 216.27372192 -40.84716797 216.27789307 C-48.21729323 216.22497397 -54.50158484 215.15360233 -62 214 C-62.33 181.33 -62.66 148.66 -63 115 C-71.03408203 123.13849609 -71.03408203 123.13849609 -79.23046875 131.44140625 C-82.62401073 134.86559417 -86.018392 138.28885827 -89.41601562 141.70898438 C-94.81253767 147.14141708 -100.20558962 152.57701641 -105.5793457 158.03198242 C-109.91048469 162.42816462 -114.25598486 166.80966035 -118.61196327 171.18122673 C-120.27384972 172.85422619 -121.93043335 174.53251003 -123.5816555 176.21603584 C-125.88995357 178.5676922 -128.21615127 180.90009328 -130.54760742 183.22875977 C-131.23093643 183.93366043 -131.91426544 184.6385611 -132.61830139 185.36482239 C-134.35243507 187.07653511 -135.97744904 188.64164815 -138 190 C-140.84289551 189.97676086 -140.84289551 189.97676086 -143 189 C-143.64880127 188.71721191 -144.29760254 188.43442383 -144.96606445 188.14306641 C-145.90518677 187.62752197 -145.90518677 187.62752197 -146.86328125 187.1015625 C-147.57718018 186.71033203 -148.2910791 186.31910156 -149.02661133 185.91601562 C-149.78095459 185.48998047 -150.53529785 185.06394531 -151.3125 184.625 C-152.10358154 184.18091797 -152.89466309 183.73683594 -153.7097168 183.27929688 C-170.39822302 173.75347554 -185.96930574 162.11220637 -200 149 C-198.37868599 144.93186431 -195.47884289 142.1968244 -192.42918396 139.16848755 C-191.85396077 138.58943881 -191.27873757 138.01039007 -190.68608338 137.4137944 C-188.75567217 135.47305756 -186.81817881 133.53955131 -184.88061523 131.60595703 C-183.49551736 130.21651228 -182.11083819 128.82665004 -180.72654724 127.43640137 C-176.96237778 123.65882368 -173.19180827 119.8876961 -169.4196651 116.11808252 C-166.26953134 112.96901789 -163.12237804 109.81698296 -159.97517639 106.6649884 C-152.54627107 99.22498018 -145.11204003 91.79032293 -137.67456055 84.35888672 C-130.00992682 76.70028545 -122.35449705 69.03257223 -114.70354694 61.36030304 C-108.13049933 54.76961628 -101.55163389 48.18477655 -94.96813542 41.60452926 C-91.03814032 37.6763445 -87.11038727 33.74598322 -83.18826103 29.80994034 C-79.49565256 26.10472172 -75.79580723 22.40688265 -72.09038734 18.71447754 C-70.73538843 17.36183753 -69.38291542 16.00666148 -68.03324127 14.64870834 C-49.03814802 -4.45442583 -25.41147462 -17.52717545 0 0 Z " fill="#1D497A" transform="translate(282,296)"/>
<path d="M0 0 C1.45768799 -0.00287018 1.45768799 -0.00287018 2.94482422 -0.00579834 C4.97819277 -0.00714575 7.01157037 -0.00355164 9.04492188 0.00488281 C12.11869024 0.01560299 15.19187433 0.00493758 18.265625 -0.0078125 C20.26041793 -0.00649065 22.2552105 -0.00392773 24.25 0 C25.14831543 -0.00404846 26.04663086 -0.00809692 26.97216797 -0.01226807 C34.34229323 0.04065103 40.62658484 1.11202267 48.125 2.265625 C48.455 35.595625 48.785 68.925625 49.125 103.265625 C74.535 77.855625 99.945 52.445625 126.125 26.265625 C144.66673228 35.53649114 144.66673228 35.53649114 152.8125 41.140625 C153.70114746 41.74358398 154.58979492 42.34654297 155.50537109 42.96777344 C166.74926407 50.65719815 177.20672689 58.92376456 187.125 68.265625 C185.49122624 72.40309502 182.49113419 75.18119856 179.39559937 78.25572205 C178.8033364 78.85181056 178.21107343 79.44789908 177.6008631 80.06205088 C175.61284146 82.06040017 173.61773329 84.05151884 171.62255859 86.04272461 C170.19642978 87.47320014 168.77071969 88.90409323 167.34539795 90.33537292 C163.46972934 94.22445018 159.58765958 98.10707765 155.70401716 101.98819041 C152.46183217 105.2293065 149.22262692 108.47339247 145.98337424 111.71743876 C138.33876426 119.37315135 130.68882843 127.02351355 123.03564453 134.6706543 C115.14491126 142.55535239 107.26338681 150.44917002 99.38633478 158.34753412 C92.62136697 165.1301302 85.8505927 171.90689143 79.07517874 178.67905241 C75.02952008 182.72289932 70.98611112 186.76893231 66.94831467 190.82063103 C63.14817964 194.63335882 59.34083137 198.43873457 55.52788544 202.23864937 C54.13215076 203.63202154 52.73895228 205.02793971 51.34853745 206.42662048 C49.44467947 208.34097522 47.53172751 210.24577286 45.61630249 212.14854431 C45.07289101 212.69933008 44.52947953 213.25011584 43.96960104 213.81759208 C34.80081229 222.86010725 24.02381615 227.265625 11.125 227.265625 C-8.21595938 225.68070643 -19.09509406 214.34476678 -32.09375 201.27392578 C-33.52305338 199.84405765 -34.9527985 198.41463097 -36.38294983 196.98561096 C-40.24841335 193.12071946 -44.10769468 189.24970829 -47.9658699 185.37754297 C-52.00482243 181.32605784 -56.04946841 177.28026461 -60.09350586 173.2338562 C-67.74356649 165.57758824 -75.38851608 157.91623792 -83.03162861 150.25303447 C-91.7362724 141.52600844 -100.44661999 132.80468482 -109.157444 124.08382821 C-127.06963594 106.15075119 -144.97467696 88.2105487 -162.875 70.265625 C-156.14068946 55.92521818 -135.47362224 45.31221291 -122.5 37.328125 C-121.81220459 36.904104 -121.12440918 36.48008301 -120.41577148 36.04321289 C-114.36796575 32.40308475 -108.24551879 29.45088439 -101.875 26.265625 C-76.465 51.675625 -51.055 77.085625 -24.875 103.265625 C-24.545 69.935625 -24.215 36.605625 -23.875 2.265625 C-15.58436805 0.99014316 -8.23529783 -0.03711423 0 0 Z M-13.875 10.265625 C-13.875 49.205625 -13.875 88.145625 -13.875 128.265625 C-22.875 120.390625 -22.875 120.390625 -25.95007324 117.31080627 C-26.65103119 116.61122299 -27.35198914 115.91163971 -28.07418823 115.19085693 C-29.18118576 114.07846649 -29.18118576 114.07846649 -30.31054688 112.94360352 C-31.11150787 112.14278854 -31.91246887 111.34197357 -32.73770142 110.51689148 C-35.3587644 107.89513728 -37.97627722 105.26986938 -40.59375 102.64453125 C-42.42055739 100.81585687 -44.24758712 98.98740456 -46.0748291 97.15916443 C-50.37591512 92.85466314 -54.67476911 88.54794466 -58.97252512 84.24011892 C-63.87025807 79.33116275 -68.77087099 74.4250859 -73.67171383 69.51923478 C-83.74265692 59.43787233 -93.81002403 49.3529447 -103.875 39.265625 C-107.56896122 40.46309434 -110.82820972 41.6383316 -114.125 43.69921875 C-114.89175049 44.1780249 -115.65850098 44.65683105 -116.44848633 45.15014648 C-117.24923584 45.66262939 -118.04998535 46.1751123 -118.875 46.703125 C-119.70862061 47.23301025 -120.54224121 47.76289551 -121.40112305 48.30883789 C-131.14578477 54.59707174 -139.9877523 61.83965868 -148.875 69.265625 C-144.20977149 74.88782346 -139.36240595 80.42573296 -133.875 85.265625 C-133.215 85.265625 -132.555 85.265625 -131.875 85.265625 C-131.875 85.925625 -131.875 86.585625 -131.875 87.265625 C-130.45951067 88.70146474 -130.45951067 88.70146474 -128.56364441 90.20907593 C-123.04243231 94.90942697 -117.97014579 100.0381337 -112.85668945 105.17041016 C-111.77025495 106.25712729 -110.68359909 107.34362317 -109.59674072 108.42991638 C-106.66704367 111.35932827 -103.74042592 114.2917987 -100.81437707 117.22485399 C-97.7422501 120.30326905 -94.66725569 123.37881726 -91.59257507 126.4546814 C-85.77440261 132.27595407 -79.95878128 138.09976841 -74.14408892 143.92451704 C-67.54084633 150.53893352 -60.93476935 157.15051606 -54.32844603 163.76185536 C-43.03424199 175.06473181 -31.74213052 186.36969521 -20.45243835 197.67707825 C-19.52315521 198.60780655 -18.59387207 199.53853485 -17.63642883 200.49746704 C-16.83287618 201.30231852 -16.02932352 202.10716999 -15.20142078 202.9364109 C-14.43370193 203.70505156 -13.66598307 204.47369221 -12.875 205.265625 C-12.00408313 206.15706396 -11.13316626 207.04850292 -10.23585796 207.96695518 C-7.8551684 210.28493421 -5.79715556 211.59479979 -2.8125 213.015625 C-1.97589844 213.42296875 -1.13929688 213.8303125 -0.27734375 214.25 C7.07685528 217.35909227 16.30921812 217.61615207 23.98046875 215.46484375 C35.91168153 209.94499809 45.20567979 198.3266791 54.37744141 189.12670898 C55.67917741 187.82469032 56.98113482 186.52289298 58.28329468 185.22129822 C61.78896464 181.71591312 65.29156035 178.20747117 68.79357958 174.69843936 C72.46461516 171.02111826 76.13851578 167.34666173 79.81210327 163.67189026 C86.75531095 156.72558451 93.69596735 149.77673542 100.63569295 142.82695109 C108.54188702 134.90954835 116.45094819 126.99501232 124.36024213 119.08070648 C140.61833596 102.8121828 156.87285635 86.54009271 173.125 70.265625 C166.33552375 63.45437812 159.43420924 57.52497034 151.375 52.265625 C150.59366699 51.75306152 149.81233398 51.24049805 149.00732422 50.71240234 C146.71930761 49.22046308 144.42340869 47.7414885 142.125 46.265625 C141.48788086 45.85086914 140.85076172 45.43611328 140.19433594 45.00878906 C138.55834747 43.95042132 136.90482119 42.91929763 135.25 41.890625 C133.89261719 41.04371094 133.89261719 41.04371094 132.5078125 40.1796875 C130.20156927 38.99092749 130.20156927 38.99092749 128.19859982 40.00058174 C125.99946902 41.34220782 124.38033847 42.7669092 122.56459045 44.59225464 C121.53224022 45.62264862 121.53224022 45.62264862 120.47903442 46.67385864 C119.73451019 47.42714447 118.98998596 48.1804303 118.22290039 48.95654297 C117.43055496 49.75020264 116.63820953 50.5438623 115.82185364 51.36157227 C113.20083213 53.98909039 110.58685406 56.62350672 107.97265625 59.2578125 C106.15240005 61.08433916 104.33162771 62.91035158 102.51036072 64.73587036 C98.20280654 69.055378 93.89937515 73.37894988 89.59826034 77.70486844 C81.44575673 85.90431262 73.28622077 94.09673679 65.12255669 102.28506851 C62.44299543 104.97484809 59.76687788 107.66801928 57.09107971 110.36154175 C55.44633441 112.01311657 53.80147847 113.66458122 52.15649414 115.31591797 C51.41399414 116.06515533 50.67149414 116.8143927 49.90649414 117.58633423 C46.45896604 121.04142364 43.03521155 124.32392564 39.125 127.265625 C39.12076806 126.66871385 39.11653612 126.07180269 39.11217594 125.45680332 C39.00900419 110.95244764 38.90038693 96.44814036 38.78566074 81.9438715 C38.73031291 74.92980195 38.67682841 67.91572732 38.62768555 60.90161133 C38.58029895 54.13890566 38.52777928 47.37625803 38.47205925 40.61361504 C38.45160065 38.02711729 38.43289352 35.44060511 38.41592598 32.85408211 C38.39195931 29.24519732 38.36189453 25.63641299 38.33032227 22.02758789 C38.3245668 20.9464975 38.31881134 19.8654071 38.31288147 18.7515564 C38.29819824 17.28543159 38.29819824 17.28543159 38.28321838 15.78968811 C38.27676583 14.93518601 38.27031328 14.08068392 38.2636652 13.20028782 C38.33673657 11.25911293 38.33673657 11.25911293 37.125 10.265625 C28.87534909 9.17197242 20.49609258 9.16437 12.1875 9.140625 C11.31971924 9.13603271 10.45193848 9.13144043 9.55786133 9.12670898 C1.67962293 9.14486998 -5.96199465 9.73809131 -13.875 10.265625 Z " fill="#A6A5A9" transform="translate(243.875,-0.265625)"/>
<path d="M0 0 C9.06106188 7.75448454 17.43214534 16.29337363 25.84667969 24.7331543 C27.18811898 26.07487641 28.52977999 27.41637688 29.87164307 28.75767517 C33.47636459 32.36211244 37.07801738 35.96960145 40.67908382 39.57768989 C44.45687286 43.36177474 48.23753684 47.14298513 52.0178833 50.92451477 C59.15935524 58.06908179 66.29827655 65.21619168 73.43626142 72.36424237 C81.56982055 80.50901956 89.70625499 88.65092182 97.84291983 96.79259622 C114.56512442 113.52522389 131.28375523 130.26141849 148 147 C140.23118252 163.40864547 115.05852305 175.18770032 100 184 C98.86691406 184.67675781 97.73382813 185.35351562 96.56640625 186.05078125 C95.59574219 186.61152344 94.62507813 187.17226563 93.625 187.75 C92.81289063 188.21921875 92.00078125 188.6884375 91.1640625 189.171875 C88.53100011 190.17947288 87.62350699 189.93117674 85 189 C83.35212326 187.72126675 83.35212326 187.72126675 81.70965576 186.07041931 C80.76743668 185.13438622 80.76743668 185.13438622 79.80618286 184.17944336 C79.12860931 183.49108398 78.45103577 182.80272461 77.75292969 182.09350586 C77.03058136 181.37159561 76.30823303 180.64968536 75.56399536 179.90589905 C73.17610992 177.51592217 70.79902831 175.11549153 68.421875 172.71484375 C66.7691481 171.05652219 65.11575798 169.39886136 63.46173096 167.74183655 C59.10841424 163.37706095 54.76418126 159.00335136 50.42175293 154.62774658 C45.21060071 149.3805232 39.98828081 144.14441745 34.76782227 138.90645599 C26.83660706 130.94614094 18.91974675 122.97179961 11 115 C10.67 147.67 10.34 180.34 10 214 C1.70936805 215.27548184 -5.63970217 216.30273923 -13.875 216.265625 C-14.84679199 216.26753845 -15.81858398 216.2694519 -16.81982422 216.27142334 C-18.85319277 216.27277075 -20.88657037 216.26917664 -22.91992188 216.26074219 C-25.99369024 216.25002201 -29.06687433 216.26068742 -32.140625 216.2734375 C-34.13541793 216.27211565 -36.1302105 216.26955273 -38.125 216.265625 C-39.02331543 216.26967346 -39.92163086 216.27372192 -40.84716797 216.27789307 C-48.21729323 216.22497397 -54.50158484 215.15360233 -62 214 C-62.33 181.33 -62.66 148.66 -63 115 C-71.03408203 123.13849609 -71.03408203 123.13849609 -79.23046875 131.44140625 C-82.62401073 134.86559417 -86.018392 138.28885827 -89.41601562 141.70898438 C-94.81253767 147.14141708 -100.20558962 152.57701641 -105.5793457 158.03198242 C-109.91048469 162.42816462 -114.25598486 166.80966035 -118.61196327 171.18122673 C-120.27384972 172.85422619 -121.93043335 174.53251003 -123.5816555 176.21603584 C-125.88995357 178.5676922 -128.21615127 180.90009328 -130.54760742 183.22875977 C-131.23093643 183.93366043 -131.91426544 184.6385611 -132.61830139 185.36482239 C-134.35243507 187.07653511 -135.97744904 188.64164815 -138 190 C-140.84289551 189.97676086 -140.84289551 189.97676086 -143 189 C-143.64880127 188.71721191 -144.29760254 188.43442383 -144.96606445 188.14306641 C-145.90518677 187.62752197 -145.90518677 187.62752197 -146.86328125 187.1015625 C-147.57718018 186.71033203 -148.2910791 186.31910156 -149.02661133 185.91601562 C-149.78095459 185.48998047 -150.53529785 185.06394531 -151.3125 184.625 C-152.10358154 184.18091797 -152.89466309 183.73683594 -153.7097168 183.27929688 C-170.39822302 173.75347554 -185.96930574 162.11220637 -200 149 C-198.37868599 144.93186431 -195.47884289 142.1968244 -192.42918396 139.16848755 C-191.85396077 138.58943881 -191.27873757 138.01039007 -190.68608338 137.4137944 C-188.75567217 135.47305756 -186.81817881 133.53955131 -184.88061523 131.60595703 C-183.49551736 130.21651228 -182.11083819 128.82665004 -180.72654724 127.43640137 C-176.96237778 123.65882368 -173.19180827 119.8876961 -169.4196651 116.11808252 C-166.26953134 112.96901789 -163.12237804 109.81698296 -159.97517639 106.6649884 C-152.54627107 99.22498018 -145.11204003 91.79032293 -137.67456055 84.35888672 C-130.00992682 76.70028545 -122.35449705 69.03257223 -114.70354694 61.36030304 C-108.13049933 54.76961628 -101.55163389 48.18477655 -94.96813542 41.60452926 C-91.03814032 37.6763445 -87.11038727 33.74598322 -83.18826103 29.80994034 C-79.49565256 26.10472172 -75.79580723 22.40688265 -72.09038734 18.71447754 C-70.73538843 17.36183753 -69.38291542 16.00666148 -68.03324127 14.64870834 C-49.03814802 -4.45442583 -25.41147462 -17.52717545 0 0 Z M-66.25244141 28.13891602 C-67.55417741 29.44093468 -68.85613482 30.74273202 -70.15829468 32.04432678 C-73.66396464 35.54971188 -77.16656035 39.05815383 -80.66857958 42.56718564 C-84.33961516 46.24450674 -88.01351578 49.91896327 -91.68710327 53.59373474 C-98.63031095 60.54004049 -105.57096735 67.48888958 -112.51069295 74.43867391 C-120.41688702 82.35607665 -128.32594819 90.27061268 -136.23524213 98.18491852 C-152.49333596 114.4534422 -168.74785635 130.72553229 -185 147 C-183.04254299 151.43713833 -179.89478795 153.69630144 -176.0625 156.5 C-175.36463379 157.0168335 -174.66676758 157.53366699 -173.94775391 158.06616211 C-165.59988381 164.15564013 -156.88760948 169.73286723 -148 175 C-146.90945312 175.64839844 -145.81890625 176.29679688 -144.6953125 176.96484375 C-142.12975691 178.29083065 -142.12975691 178.29083065 -140.06328964 177.28141212 C-137.82702808 175.89257528 -136.15061513 174.39662287 -134.29205322 172.53256226 C-133.2110006 171.45563362 -133.2110006 171.45563362 -132.10810852 170.35694885 C-131.32767685 169.56932663 -130.54724518 168.78170441 -129.74316406 167.97021484 C-128.91352646 167.14086929 -128.08388885 166.31152374 -127.22911072 165.45704651 C-124.48651536 162.71305719 -121.7510732 159.96205027 -119.015625 157.2109375 C-117.11661233 155.30708432 -115.2160969 153.40473405 -113.31561279 151.50234985 C-108.82452149 147.00504509 -104.33855233 142.50266689 -99.85440326 137.99844134 C-94.2473323 132.36681304 -88.63344888 126.74198926 -83.01953125 121.1171875 C-73.00646246 111.08464543 -63.00374288 101.04186044 -53 91 C-52.67 128.95 -52.34 166.9 -52 206 C-43.33388472 206.83187383 -43.33388472 206.83187383 -34.73046875 207.1328125 C-33.66304443 207.13482666 -32.59562012 207.13684082 -31.49584961 207.13891602 C-29.85821655 207.13202759 -29.85821655 207.13202759 -28.1875 207.125 C-27.05127197 207.12234131 -25.91504395 207.11968262 -24.74438477 207.11694336 C-11.60201425 208.08016201 -11.60201425 208.08016201 0 205 C0.10779855 203.52027192 0.14681856 202.03547028 0.15821838 200.55186462 C0.17290161 199.11098228 0.17290161 199.11098228 0.18788147 197.64099121 C0.19363693 196.57860229 0.1993924 195.51621338 0.20532227 194.42163086 C0.21522186 193.30957779 0.22512146 192.19752472 0.23532104 191.05177307 C0.26704523 187.35615202 0.29173647 183.66051809 0.31640625 179.96484375 C0.33696636 177.41036128 0.35796256 174.85588229 0.37937927 172.30140686 C0.42903567 166.25241509 0.47427559 160.2034057 0.51740164 154.15436512 C0.56673247 147.26931425 0.62166595 140.38431169 0.67708123 133.49930751 C0.79097603 119.33291675 0.89779866 105.16647961 1 91 C1.59425781 91.59949463 2.18851563 92.19898926 2.80078125 92.81665039 C5.04266107 95.07574527 7.28691531 97.33244873 9.53271484 99.58764648 C10.49751459 100.55742273 11.46140895 101.5281007 12.42431641 102.49975586 C17.51766898 107.6381589 22.61243025 112.70160527 28.1484375 117.36499023 C30.53904036 119.47599595 32.75817222 121.73201741 35 124 C36.5952661 125.59068878 38.19090182 127.18100694 39.78686523 128.77099609 C44.35455425 133.32268143 48.92003222 137.87657317 53.48390102 142.43208885 C56.23509497 145.17806331 58.98721887 147.92309233 61.74145508 150.66601562 C64.4208203 153.33445251 67.09767821 156.0053818 69.77287483 158.67799759 C70.78577128 159.68906112 71.79954026 160.69925138 72.81423759 161.70850754 C78.10397306 166.97098464 83.24930479 172.2430587 88 178 C101.25623727 173.09874752 112.90433604 164.56281448 124 156 C124.969375 155.25621094 125.93875 154.51242187 126.9375 153.74609375 C128.96794808 152.17566907 130.98978628 150.59618597 133 149 C131.40491444 145.06579382 128.69337073 142.41071102 125.7328949 139.47219849 C125.19034012 138.92581817 124.64778535 138.37943784 124.08878952 137.81650054 C122.26893092 135.98632082 120.44199967 134.16337131 118.61499023 132.34033203 C117.30870919 131.02970384 116.00284678 129.71865828 114.69737244 128.40722656 C111.14807049 124.8445189 107.59237266 121.28826022 104.03509784 117.73351526 C101.06390749 114.76339425 98.09569839 111.79030274 95.12744004 108.81725204 C88.12043579 101.79914568 81.10810762 94.78639002 74.0925293 87.77685547 C66.86414743 80.55450536 59.6449708 73.32304758 52.43027347 66.08702958 C46.23089765 59.87001055 40.0257005 53.65884382 33.81587178 47.45226562 C30.10944162 43.74764522 26.40525201 40.04085377 22.70669365 36.32837296 C19.22420562 32.83326823 15.7344754 29.34555694 12.2391758 25.86326599 C10.96158031 24.58802803 9.68650653 23.31025759 8.41423798 22.02970505 C-0.87098199 12.32154255 -0.87098199 12.32154255 -12 5 C-12.99 5 -13.98 5 -15 5 C-15 4.34 -15 3.68 -15 3 C-38.88410355 -2.43021208 -50.88890574 12.72812853 -66.25244141 28.13891602 Z " fill="#A3A6AA" transform="translate(282,296)"/>
<path d="M0 0 C17.59571484 8.3665899 36.02471161 41.30592867 43 59 C42.57070198 62.36302279 41.36544957 64.00703206 38.99449158 66.36627197 C38.3536412 67.01124634 37.71279083 67.6562207 37.05252075 68.32073975 C36.3454599 69.01701477 35.63839905 69.71328979 34.90991211 70.43066406 C34.16849472 71.17251953 33.42707733 71.914375 32.66319275 72.67871094 C30.20828634 75.13152564 27.74292095 77.57354069 25.27734375 80.015625 C23.57418172 81.71319247 21.87168038 83.41142305 20.16981506 85.11029053 C15.6866725 89.58197345 11.194594 94.04457468 6.70062256 98.50537109 C2.11727066 103.0580465 -2.45761063 107.61921604 -7.03320312 112.1796875 C-16.01384443 121.12814487 -25.0036604 130.06732651 -34 139 C-32.73688492 139.01030746 -31.47376984 139.02061493 -30.17237854 139.03123474 C-18.29671055 139.12878658 -6.42109711 139.23150288 5.45448208 139.33933926 C11.5605376 139.39461766 17.66659787 139.44804538 23.77270508 139.49731445 C29.66009406 139.54488564 35.54742272 139.59722554 41.43474007 139.65294075 C43.68630544 139.67339725 45.93788738 139.69210474 48.18948174 139.70907402 C51.33137913 139.73304535 54.47316133 139.76310947 57.61499023 139.79467773 C59.02623421 139.80331093 59.02623421 139.80331093 60.46598816 139.81211853 C66.88594784 139.88594784 66.88594784 139.88594784 68 141 C69.10148975 147.79113979 69.15958251 154.68411911 69.16796875 161.546875 C69.17129715 162.52054016 69.17462555 163.49420532 69.17805481 164.49737549 C69.18308415 166.54446953 69.18546438 168.59157166 69.18530273 170.63867188 C69.18748447 173.7280058 69.20567037 176.81697922 69.22460938 179.90625 C69.2275453 181.91145714 69.22952876 183.91666594 69.23046875 185.921875 C69.23765427 186.82444031 69.24483978 187.72700562 69.25224304 188.65692139 C69.2253811 196.40670265 68.12746558 203.10774093 67 211 C17.5 211.495 17.5 211.495 -33 212 C-7.92 237.08 17.16 262.16 43 288 C31.80402205 310.39195591 18.55891314 331.04690718 1 349 C-3.09905363 347.37248105 -5.85622798 344.42855167 -8.90744019 341.35998535 C-9.49465603 340.77730062 -10.08187187 340.19461589 -10.68688214 339.59427404 C-12.65526018 337.63856604 -14.61640996 335.67576811 -16.57763672 333.71289062 C-17.98679307 332.3097181 -19.3963593 330.90695708 -20.80630493 329.50457764 C-24.6377046 325.69086525 -28.46257295 321.8706663 -32.28577566 318.04873848 C-34.67609329 315.65984207 -37.0678292 313.27237534 -39.46008682 310.88542175 C-47.81033708 302.55368453 -56.15539306 294.216785 -64.49560547 285.875 C-72.26171102 278.10769442 -80.03888291 270.35159444 -87.82137859 262.60071421 C-94.50721929 255.94106474 -101.18528541 249.27368607 -107.85740483 242.60028982 C-111.84020351 238.61698212 -115.82601976 234.63681559 -119.81966782 230.66438293 C-123.5796103 226.92386912 -127.32974109 223.17378445 -131.07271957 219.41629791 C-132.44383308 218.04310062 -133.81833147 216.67327297 -135.19654083 215.30719757 C-147.11991186 203.48198036 -156.1405947 192.67952573 -156.4375 175.125 C-156.26638491 152.31856731 -138.38335946 138.22562023 -123.40209961 123.28857422 C-122.0508205 121.93757774 -120.69976266 120.58635992 -119.34890747 119.23493958 C-115.70922934 115.59497645 -112.06649291 111.95808834 -108.4231689 108.32177496 C-104.60571277 104.51060221 -100.79111916 100.69656648 -96.97621155 96.88284302 C-89.76428581 89.67401596 -82.54981646 82.46774017 -75.33441311 75.26239407 C-67.11471962 67.05390729 -58.89789113 58.84255514 -50.68129337 50.63096976 C-33.79069844 33.75080608 -16.89653706 16.87421564 0 0 Z M-3.9037503 18.63160139 C-4.4399289 19.17155932 -4.9761075 19.71151724 -5.52853394 20.26783752 C-6.09911785 20.83459589 -6.66970177 21.40135426 -7.25757611 21.98528713 C-9.18157909 23.89891423 -11.09829655 25.81967851 -13.01513672 27.74047852 C-14.38782595 29.10882362 -15.76093358 30.47674911 -17.13442993 31.84428406 C-20.87481798 35.57123376 -24.60872393 39.3046151 -28.34113455 43.03955197 C-31.45549376 46.15497835 -34.57281871 49.26742866 -37.69010937 52.37992138 C-45.04658771 59.72528628 -52.39770149 67.0759902 -59.74560547 74.42993164 C-67.32581574 82.01617458 -74.91513677 89.59321382 -82.50901592 97.16577202 C-89.02488885 103.66402239 -95.53493246 110.16807253 -102.04037297 116.67676681 C-105.92716288 120.5653698 -109.8161454 124.451714 -113.7107811 128.3324604 C-117.37655649 131.98565276 -121.03499134 135.64604121 -124.68795395 139.31204414 C-126.02852891 140.65498395 -127.37165659 141.99538122 -128.71753693 143.333004 C-130.55789814 145.16288799 -132.3887193 147.00182839 -134.21749878 148.84327698 C-134.74921594 149.36761985 -135.28093309 149.89196272 -135.82876289 150.43219477 C-142.14852312 156.84407283 -146.0179636 164.13217751 -146.3125 173.25 C-145.88753518 190.72077605 -134.5274311 202.0662313 -122.81274414 213.64135742 C-121.48081916 214.97215199 -120.14977854 216.30383217 -118.81954956 217.63632202 C-115.2318686 221.22514349 -111.63205222 224.80155827 -108.02981496 228.37576079 C-104.25766168 232.1227893 -100.49694737 235.88126402 -96.73497009 239.63850403 C-89.62105676 246.74002003 -82.49701532 253.83128384 -75.36921638 260.91885978 C-67.25002586 268.99323145 -59.14228604 277.07905997 -51.03545582 285.1658386 C-34.36961991 301.7899437 -17.68955997 318.39971489 -1 335 C1.90383557 332.71167744 4.53093517 330.63000285 6.76171875 327.671875 C7.23609375 327.04466553 7.71046875 326.41745605 8.19921875 325.77124023 C8.93591797 324.77072632 8.93591797 324.77072632 9.6875 323.75 C10.20570313 323.05269775 10.72390625 322.35539551 11.2578125 321.63696289 C16.17707665 314.92484345 20.67586546 307.95972526 24.921875 300.80419922 C25.66257673 299.56466439 26.42431038 298.33753164 27.203125 297.12158203 C29.41141923 293.79991687 29.41141923 293.79991687 29.75779724 289.972229 C28.47375579 286.6304066 25.79351944 284.38878457 23.28515625 281.921875 C22.71421738 281.35043762 22.1432785 280.77900024 21.55503845 280.19024658 C20.34895836 278.98650364 19.13919193 277.78644444 17.92602539 276.58984375 C16.06410912 274.75158867 14.21593797 272.90030578 12.36914062 271.046875 C11.19610382 269.87941269 10.02230157 268.71271888 8.84765625 267.546875 C8.0147683 266.71261993 8.0147683 266.71261993 7.16505432 265.86151123 C4.5619467 262.93292114 4.5619467 262.93292114 1 262 C0.34 260.68 -0.32 259.36 -1 258 C-1.66 258 -2.32 258 -3 258 C-3 257.34 -3 256.68 -3 256 C-4.41405811 254.56624468 -4.41405811 254.56624468 -6.30859375 253.06030273 C-11.85021675 248.34395187 -16.93521073 243.1900958 -22.0625 238.03515625 C-22.97837891 237.11827026 -23.89425781 236.20138428 -24.83789062 235.25671387 C-28.22801675 231.86139247 -31.61375552 228.46169269 -35 225.0625 C-42.59 217.451875 -50.18 209.84125 -58 202 C-19.72 201.67 18.56 201.34 58 201 C59.69188837 184.08111632 59 167.00326766 59 150 C1.085 149.505 1.085 149.505 -58 149 C-28.63 119.63 0.74 90.26 31 60 C29.38455431 55.15366292 27.62186849 51.28349673 25 47 C24.60627197 46.35135986 24.21254395 45.70271973 23.80688477 45.03442383 C17.43753219 34.68877006 10.32965654 23.86046798 2 15 C-0.90198835 15 -1.9329078 16.68425553 -3.9037503 18.63160139 Z " fill="#A4A6AA" transform="translate(443,82)"/>
<path d="M0 0 C4.07048352 1.621203 6.80387233 4.5247404 9.83151245 7.57754517 C10.70008556 8.4414383 10.70008556 8.4414383 11.5862056 9.32278383 C13.52694066 11.25553636 15.46044247 13.19536561 17.39404297 15.13525391 C18.78348023 16.52198131 20.17334266 17.90828284 21.56359863 19.29418945 C25.34107197 23.06253261 29.11217593 26.83719054 32.88191748 30.61326647 C36.82926687 34.5656766 40.78149067 38.51320763 44.73294067 42.46151733 C51.37260323 49.09753877 58.00803278 55.73777097 64.64111328 62.38037109 C72.30127469 70.05139939 79.96859016 77.71522036 87.63969696 85.37530196 C94.22864846 91.95516337 100.81367647 98.53893229 107.39547074 105.12595308 C111.32493639 109.05853126 115.25572752 112.98975896 119.19005966 116.91746902 C122.89308988 120.61470204 126.59115532 124.31683158 130.28552246 128.02272034 C131.63904006 129.37887261 132.99424423 130.7333441 134.35129166 132.0859642 C146.82053409 144.51828651 158.25731597 156.06832459 158.3125 174.8125 C158.1595608 193.83376667 147.77179875 204.82600523 134.96411133 217.53759766 C133.52885243 218.97664463 132.09445244 220.41654867 130.6608429 221.85723877 C126.78601891 225.7459624 122.89882019 229.62208836 119.00878358 233.49558687 C114.93597064 237.55450904 110.87336143 241.62362252 106.80924988 245.69125366 C99.99123147 252.51196899 93.16519232 259.32457529 86.33422852 266.13232422 C78.43012637 274.00975063 70.53860696 281.89961287 62.65369588 289.79624522 C55.0659521 297.39475038 47.46977763 304.98477156 39.86957359 312.57081223 C36.63444936 315.8001694 33.40227582 319.03243837 30.17240334 322.26704788 C26.37649876 326.06770924 22.57327941 329.86089386 18.76417351 333.64832306 C17.36472706 335.0421863 15.96784644 336.4386309 14.57367706 337.83777237 C12.6769848 339.74038165 10.77138456 341.63358157 8.8631134 343.52456665 C8.30786619 344.0858239 7.75261899 344.64708116 7.1805461 345.22534621 C3.34248208 349 3.34248208 349 0 349 C-1.8046875 347.19140625 -1.8046875 347.19140625 -3.875 344.5625 C-4.66648438 343.55960937 -5.45796875 342.55671875 -6.2734375 341.5234375 C-6.7075293 340.96237305 -7.14162109 340.40130859 -7.58886719 339.82324219 C-9.10362164 337.86611654 -10.63395752 335.921705 -12.1640625 333.9765625 C-23.28542202 319.74069749 -32.3855404 304.86211559 -41 289 C-36.83174934 284.02787705 -32.49242169 279.35280191 -27.89306641 274.77954102 C-27.1984902 274.08484427 -26.50391399 273.39014753 -25.78829002 272.67439938 C-23.56170794 270.44855771 -21.33172347 268.22616144 -19.1015625 266.00390625 C-17.71746473 264.6212806 -16.33359335 263.23842827 -14.94995117 261.85534668 C-9.84437193 256.75498903 -4.73442585 251.6590042 0.375 246.5625 C17.514375 229.4540625 17.514375 229.4540625 35 212 C2 211.67 -31 211.34 -65 211 C-66.2417064 202.30805523 -67.29911614 194.54460257 -67.23046875 185.921875 C-67.23001053 184.94438293 -67.22955231 183.96689087 -67.2290802 182.95977783 C-67.22609335 180.91978725 -67.21831664 178.87979819 -67.20581055 176.83984375 C-67.18745321 173.74210416 -67.18530226 170.64466361 -67.18554688 167.546875 C-67.18063323 165.54687245 -67.17480559 163.5468719 -67.16796875 161.546875 C-67.16685593 160.63621277 -67.1657431 159.72555054 -67.16459656 158.78729248 C-67.0425076 142.0425076 -67.0425076 142.0425076 -65 140 C-61.86510797 139.87457722 -58.75120163 139.81386331 -55.61499023 139.79467773 C-54.62973358 139.78477814 -53.64447693 139.77487854 -52.62936401 139.76467896 C-49.3557988 139.73296006 -46.08221905 139.70826563 -42.80859375 139.68359375 C-40.54557405 139.66303318 -38.28255827 139.64203696 -36.01954651 139.62062073 C-30.05025395 139.56530734 -24.08092621 139.51593907 -18.11157227 139.46777344 C-12.02552136 139.4176259 -5.93952184 139.3619047 0.14648438 139.30664062 C12.09761241 139.19894578 24.04878496 139.09752613 36 139 C35.60224082 138.60777158 35.20448164 138.21554316 34.79466915 137.81142902 C25.12246742 128.27166716 15.46705589 118.71519493 5.82952785 109.14040089 C1.16838542 104.5106132 -3.49819113 99.88658831 -8.17749023 95.27514648 C-12.69037968 90.82729686 -17.18858996 86.36508483 -21.67686272 81.89240074 C-23.39451919 80.18585789 -25.11746054 78.48461788 -26.845644 76.78873634 C-29.25955894 74.41817503 -31.65424092 72.02970126 -34.04516602 69.63598633 C-34.76876816 68.93395584 -35.4923703 68.23192535 -36.23789978 67.50862122 C-36.88441498 66.85385803 -37.53093018 66.19909485 -38.19703674 65.52449036 C-38.76578301 64.96127484 -39.33452929 64.39805933 -39.92051029 63.81777668 C-41 62 -41 62 -40.72874355 59.40259838 C-40.03766116 57.12416526 -39.24514509 55.21988337 -38.1015625 53.13671875 C-37.7104126 52.42290039 -37.3192627 51.70908203 -36.91625977 50.97363281 C-36.49014404 50.21920898 -36.06402832 49.46478516 -35.625 48.6875 C-34.95778931 47.49979004 -34.95778931 47.49979004 -34.27709961 46.28808594 C-24.74362823 29.59493926 -13.03301891 14.11599183 0 0 Z M0 15 C-1.75877384 16.981674 -3.38737511 18.96589372 -5 21.0625 C-5.48766846 21.6915625 -5.97533691 22.320625 -6.4777832 22.96875 C-11.67136101 29.75137626 -16.44802784 36.77390737 -21 44 C-21.41008301 44.64630371 -21.82016602 45.29260742 -22.24267578 45.95849609 C-23.43363022 47.85579668 -24.59663385 49.76716435 -25.75 51.6875 C-26.42546875 52.80511719 -27.1009375 53.92273438 -27.796875 55.07421875 C-29.31110857 57.82384442 -29.31110857 57.82384442 -28.29344177 59.94874191 C-26.88726329 62.17878816 -25.37130772 63.88042855 -23.50805664 65.74591064 C-22.78458038 66.47502655 -22.06110413 67.20414246 -21.31570435 67.95535278 C-20.52187347 68.74513519 -19.7280426 69.5349176 -18.91015625 70.34863281 C-18.07426971 71.18802399 -17.23838318 72.02741516 -16.37716675 72.89224243 C-14.08758744 75.1891118 -11.7935697 77.48142716 -9.49717331 79.7714777 C-7.09546121 82.16812411 -4.698635 84.56964874 -2.30102539 86.97039795 C1.72378487 90.99884478 5.75278977 95.02306027 9.78417969 99.04492188 C14.44929608 103.69913954 19.10714377 108.36053851 23.76130962 113.02570462 C27.75597516 117.02943421 31.7545101 121.02926803 35.75632954 125.0258472 C38.14724083 127.41363583 40.5367692 129.80276623 42.92282104 132.19541168 C45.58047081 134.85811266 48.24439888 137.51436472 50.91015625 140.16894531 C51.70398712 140.96682465 52.49781799 141.76470398 53.31570435 142.58676147 C54.0391806 143.30459808 54.76265686 144.02243469 55.50805664 144.76202393 C56.13780899 145.39102222 56.76756134 146.02002052 57.41639709 146.66807938 C58.91022489 148.21455733 58.91022489 148.21455733 61 148 C61 148.66 61 149.32 61 150 C22.06 150 -16.88 150 -57 150 C-59.18845267 175.93627581 -59.18845267 175.93627581 -56 201 C-17.72 201.33 20.56 201.66 60 202 C55.05 206.62 50.1 211.24 45 216 C42.17703549 218.72399905 39.36621231 221.45082459 36.58007812 224.21118164 C35.86427078 224.9172052 35.14846344 225.62322876 34.41096497 226.35064697 C27.13040894 233.53864504 19.87608852 240.75324441 12.62451172 247.97045898 C9.18752428 251.38945 5.74215204 254.79965905 2.28955078 258.20288086 C-1.91007952 262.34257566 -6.0950321 266.49657291 -10.26966858 270.6614666 C-11.856265 272.23949258 -13.4479992 273.81237022 -15.04490662 275.37996101 C-17.26092672 277.55736426 -19.4575727 279.75263641 -21.65039062 281.95336914 C-22.6443409 282.9173185 -22.6443409 282.9173185 -23.65837097 283.90074158 C-27.14724387 287.22688537 -27.14724387 287.22688537 -28.00402832 291.73558044 C-26.5793364 294.94873706 -24.90563979 297.95211085 -23.0625 300.9375 C-22.46405273 301.91831543 -22.46405273 301.91831543 -21.85351562 302.91894531 C-15.25273062 313.5900433 -7.8846287 325.09720232 1 334 C4.6246806 334 5.42382677 332.93782836 7.91881496 330.48707736 C8.43515268 329.96472958 8.95149041 329.44238181 9.48347473 328.90420532 C10.31401423 328.08174413 10.31401423 328.08174413 11.16133231 327.24266756 C13.02469798 325.39366964 14.87709669 323.53405694 16.72973633 321.67431641 C18.05971301 320.35003906 19.39032008 319.02639454 20.72151184 317.70333862 C24.34450133 314.09835415 27.95779932 310.48379912 31.56894898 306.8669591 C34.58516353 303.84766003 37.60594743 300.83295378 40.62672538 297.81822145 C47.7587449 290.70027269 54.88289657 283.57451597 62.00219727 276.44384766 C69.33797385 269.09661647 76.68638543 261.7622035 84.04130346 254.43413794 C90.35781918 248.13981868 96.66650208 241.83772392 102.96899813 235.52936685 C106.73185341 231.76314673 110.49752144 227.9998565 114.27066994 224.24394608 C117.82468697 220.70545626 121.36876668 217.15729849 124.90563774 213.60167313 C126.2009702 212.30266927 127.49967412 211.00701667 128.80208588 209.71511078 C139.22066181 199.37413663 147.58723891 189.98929493 148.4375 174.75 C147.99452282 156.95708343 132.53761041 145.38693739 120.89282227 133.74755859 C119.5940664 132.44580434 118.29551359 131.14384746 116.99714661 129.84170532 C113.50006868 126.33586282 109.9998196 122.83320371 106.49867749 119.33142042 C104.31054393 117.14257327 102.12312507 114.9530145 99.93595695 112.76320267 C92.30463062 105.12265544 84.67075676 97.48466442 77.03442383 89.84912109 C69.91387329 82.72917391 62.79894838 75.60363865 55.68657261 68.47552621 C49.57276814 62.34867619 43.45514512 56.22565707 37.33449405 50.10564673 C33.68141009 46.45281818 30.0299088 42.79844056 26.38223457 39.1402092 C22.96140366 35.70974496 19.5358691 32.2840505 16.10656548 28.86205673 C14.84623791 27.60278023 13.58763322 26.34177682 12.33084106 25.07897186 C10.62217596 23.3626588 8.90754106 21.65254821 7.19117737 19.94393921 C6.68953695 19.43715523 6.18789654 18.93037125 5.6710549 18.40823019 C3.28581719 15.75575589 3.28581719 15.75575589 0 15 Z " fill="#A4A7AB" transform="translate(67,82)"/>
<path d="M0 0 C4.16244068 1.38748023 6.77655575 2.26317814 10.28515625 4.46875 C11.05698242 4.95263184 11.82880859 5.43651367 12.62402344 5.93505859 C13.4287207 6.45148926 14.23341797 6.96791992 15.0625 7.5 C15.89942383 8.03318848 16.73634766 8.56637695 17.59863281 9.11572266 C27.30411871 15.37570521 36.3436681 22.35021832 45 30 C44.10698344 31.06486855 43.2104053 32.12675041 42.3125 33.1875 C41.56419922 34.07501953 41.56419922 34.07501953 40.80078125 34.98046875 C40.20652344 35.64691406 39.61226563 36.31335938 39 37 C38.26136719 37.88300781 37.52273438 38.76601562 36.76171875 39.67578125 C33.37762059 42.52378466 30.74182982 42.78783398 26.5 43 C16.91164301 43.81050578 7.82995073 45.94517861 -1.47021484 48.35302734 C-3.79351497 48.94719308 -6.12229852 49.50368481 -8.45703125 50.05078125 C-32.02668575 55.80195901 -57.43709272 67.506845 -77.43920898 81.20166016 C-77.95427002 81.4651123 -78.46933105 81.72856445 -79 82 C-79.66 81.67 -80.32 81.34 -81 81 C-54.27 54.27 -27.54 27.54 0 0 Z " fill="#3F1E27" transform="translate(372,39)"/>
<path d="M0 0 C0.99 0.33 1.98 0.66 3 1 C0.3144406 3.6855594 -2.37621328 4.06049974 -6 5 C-2.25 1.125 -2.25 1.125 0 0 Z " fill="#812A56" transform="translate(269,211)"/>
</svg>
