<?xml version="1.0" encoding="UTF-8"?>
<svg version="1.1" xmlns="http://www.w3.org/2000/svg" width="1080" height="1080">
<path d="M0 0 C1.56911133 -0.00580078 1.56911133 -0.00580078 3.16992188 -0.01171875 C13.3048116 0.00086336 23.08740858 0.80240101 33 2.9375 C34.23641235 3.2003479 34.23641235 3.2003479 35.49780273 3.46850586 C40.64913091 4.60911711 45.44209725 6.04282751 50.26953125 8.203125 C52.54954379 9.17264384 54.79347595 9.80526177 57.1875 10.4375 C62.73249197 12.03418 67.70123278 14.6352628 72.80859375 17.2734375 C78.25973843 20.08550074 83.85226668 22.59216163 89.4375 25.125 C89.4375 25.785 89.4375 26.445 89.4375 27.125 C90.16839844 27.39441406 90.89929688 27.66382813 91.65234375 27.94140625 C94.35914247 29.0917008 96.57694455 30.40639428 99 32.0625 C99.74378906 32.56652344 100.48757813 33.07054687 101.25390625 33.58984375 C102.33478516 34.34974609 102.33478516 34.34974609 103.4375 35.125 C104.56478516 35.90037109 104.56478516 35.90037109 105.71484375 36.69140625 C106.28332031 37.16449219 106.85179687 37.63757813 107.4375 38.125 C107.4375 38.785 107.4375 39.445 107.4375 40.125 C108.0046875 40.22167969 108.571875 40.31835938 109.15625 40.41796875 C111.94561061 41.28247949 113.66047633 42.61666086 115.9375 44.4375 C116.6903125 45.03175781 117.443125 45.62601563 118.21875 46.23828125 C120.42167771 48.11154548 122.49387574 49.98259598 124.4375 52.125 C124.4375 52.785 124.4375 53.445 124.4375 54.125 C125.4275 54.125 126.4175 54.125 127.4375 54.125 C129.625 56 129.625 56 131.4375 58.125 C131.4375 58.785 131.4375 59.445 131.4375 60.125 C132.159375 60.33125 132.88125 60.5375 133.625 60.75 C136.6145763 62.21157064 137.91757265 63.81281656 139.91796875 66.41015625 C142.3607841 69.16695815 145.30029592 71.23340739 148.25390625 73.4140625 C150.51330672 75.18439776 152.51696535 76.99107261 154.4375 79.125 C154.4375 79.785 154.4375 80.445 154.4375 81.125 C155.4275 81.455 156.4175 81.785 157.4375 82.125 C157.4375 82.785 157.4375 83.445 157.4375 84.125 C158.4275 84.455 159.4175 84.785 160.4375 85.125 C160.4375 85.785 160.4375 86.445 160.4375 87.125 C161.30375 87.5271875 161.30375 87.5271875 162.1875 87.9375 C164.49300043 89.15429189 166.45806192 90.42833879 168.4375 92.125 C168.4375 92.785 168.4375 93.445 168.4375 94.125 C169.4275 94.455 170.4175 94.785 171.4375 95.125 C171.4375 95.785 171.4375 96.445 171.4375 97.125 C171.97375 97.33125 172.51 97.5375 173.0625 97.75 C176.35728009 99.65750426 179.03113628 102.17319384 181.4375 105.125 C181.4375 105.785 181.4375 106.445 181.4375 107.125 C182.118125 107.33125 182.79875 107.5375 183.5 107.75 C188.58576943 110.13057292 192.31080577 113.767189 195.875 118.0625 C199.85367316 122.81749964 204.53697679 126.66001336 209.4375 130.4375 C210.0975 130.994375 210.7575 131.55125 211.4375 132.125 C211.4375 132.785 211.4375 133.445 211.4375 134.125 C212.035625 134.393125 212.63375 134.66125 213.25 134.9375 C215.43597854 136.12417406 216.85082594 137.22099113 218.4375 139.125 C218.4375 139.785 218.4375 140.445 218.4375 141.125 C219.4275 141.455 220.4175 141.785 221.4375 142.125 C221.4375 142.785 221.4375 143.445 221.4375 144.125 C222.01886719 144.38796875 222.60023438 144.6509375 223.19921875 144.921875 C225.54753822 146.18414794 227.27547845 147.58948561 229.25 149.375 C231.83754253 151.69801681 234.44611389 153.9706925 237.125 156.1875 C239.34199091 158.0684312 241.20289939 159.96642311 243 162.25 C244.99654233 164.60489608 246.2444102 165.79437092 248.75 167.375 C249.636875 167.9525 250.52375 168.53 251.4375 169.125 C251.4375 169.785 251.4375 170.445 251.4375 171.125 C252.7575 171.785 254.0775 172.445 255.4375 173.125 C255.4375 173.785 255.4375 174.445 255.4375 175.125 C257.0875 175.785 258.7375 176.445 260.4375 177.125 C261.375 180.25 261.375 180.25 261.4375 184.125 C260.2199707 185.59399414 260.2199707 185.59399414 258.48828125 186.97265625 C257.84769775 187.48602539 257.20711426 187.99939453 256.54711914 188.52832031 C252.97306716 191.23336602 249.35834935 193.86534291 245.6875 196.4375 C244.55634766 197.2428418 244.55634766 197.2428418 243.40234375 198.06445312 C242.67660156 198.57556641 241.95085937 199.08667969 241.203125 199.61328125 C240.55118164 200.07259033 239.89923828 200.53189941 239.22753906 201.00512695 C237.4375 202.125 237.4375 202.125 234.4375 203.125 C234.4375 203.785 234.4375 204.445 234.4375 205.125 C233.1175 205.455 231.7975 205.785 230.4375 206.125 C230.4375 206.785 230.4375 207.445 230.4375 208.125 C228.9834375 208.5271875 228.9834375 208.5271875 227.5 208.9375 C225.9840625 209.5253125 225.9840625 209.5253125 224.4375 210.125 C224.1075 211.115 223.7775 212.105 223.4375 213.125 C221.22265625 214.94921875 221.22265625 214.94921875 218.5 216.8125 C217.60410156 217.43511719 216.70820312 218.05773437 215.78515625 218.69921875 C213.4375 220.125 213.4375 220.125 211.4375 220.125 C211.1075 221.115 210.7775 222.105 210.4375 223.125 C209.4475 223.125 208.4575 223.125 207.4375 223.125 C207.1075 224.115 206.7775 225.105 206.4375 226.125 C201.06607143 230.125 201.06607143 230.125 198.4375 230.125 C198.4375 230.785 198.4375 231.445 198.4375 232.125 C197.798125 232.228125 197.15875 232.33125 196.5 232.4375 C195.4790625 232.7778125 195.4790625 232.7778125 194.4375 233.125 C194.1075 234.115 193.7775 235.105 193.4375 236.125 C192.4475 236.125 191.4575 236.125 190.4375 236.125 C190.4375 236.785 190.4375 237.445 190.4375 238.125 C188.7875 238.785 187.1375 239.445 185.4375 240.125 C185.4375 240.785 185.4375 241.445 185.4375 242.125 C184.1175 242.455 182.7975 242.785 181.4375 243.125 C181.4375 243.785 181.4375 244.445 181.4375 245.125 C179.7578125 246.4140625 179.7578125 246.4140625 177.5625 247.75 C176.84320312 248.19601562 176.12390625 248.64203125 175.3828125 249.1015625 C173.4375 250.125 173.4375 250.125 171.4375 250.125 C171.1075 251.115 170.7775 252.105 170.4375 253.125 C168.109375 255.09765625 168.109375 255.09765625 165.1875 257.1875 C164.23359375 257.87972656 163.2796875 258.57195312 162.296875 259.28515625 C159.4375 261.125 159.4375 261.125 156.640625 262.18359375 C155.91359375 262.49425781 155.1865625 262.80492187 154.4375 263.125 C154.1075 264.115 153.7775 265.105 153.4375 266.125 C151.375 266.8125 151.375 266.8125 149.4375 267.125 C149.4375 267.785 149.4375 268.445 149.4375 269.125 C147.57421875 270.5625 147.57421875 270.5625 145.125 272.125 C143.92423828 272.8984375 143.92423828 272.8984375 142.69921875 273.6875 C141.95285156 274.161875 141.20648437 274.63625 140.4375 275.125 C139.4475 275.785 138.4575 276.445 137.4375 277.125 C136.4475 277.125 135.4575 277.125 134.4375 277.125 C134.1075 278.115 133.7775 279.105 133.4375 280.125 C132.4475 280.125 131.4575 280.125 130.4375 280.125 C130.4375 280.785 130.4375 281.445 130.4375 282.125 C127.75071744 283.39736834 125.06310532 284.66793165 122.375 285.9375 C121.62283203 286.29392578 120.87066406 286.65035156 120.09570312 287.01757812 C107.66551134 292.88290671 107.66551134 292.88290671 101.5 294.75 C100.72785156 294.98976563 99.95570313 295.22953125 99.16015625 295.4765625 C92.07927568 297.16297021 85.03703078 297.28447993 77.796875 297.29296875 C76.29172333 297.29796135 76.29172333 297.29796135 74.75616455 297.30305481 C72.64164688 297.30809544 70.52712133 297.31046403 68.41259766 297.31030273 C65.21112668 297.3124839 62.01000369 297.33065593 58.80859375 297.34960938 C44.52220592 297.39116471 31.91236137 296.10371391 18.1875 292 C17.24003906 291.72285156 16.29257812 291.44570313 15.31640625 291.16015625 C13.02154472 290.48792408 10.7287165 289.80953152 8.4375 289.125 C8.4375 288.465 8.4375 287.805 8.4375 287.125 C7.65375 287.0425 6.87 286.96 6.0625 286.875 C1.259855 285.88134931 -3.06059489 284.03786482 -7.5625 282.125 C-7.5625 281.465 -7.5625 280.805 -7.5625 280.125 C-9.5425 279.795 -11.5225 279.465 -13.5625 279.125 C-13.5625 278.465 -13.5625 277.805 -13.5625 277.125 C-14.34625 276.980625 -15.13 276.83625 -15.9375 276.6875 C-18.5625 276.125 -18.5625 276.125 -20.5625 275.125 C-20.5625 274.465 -20.5625 273.805 -20.5625 273.125 C-22.2125 272.795 -23.8625 272.465 -25.5625 272.125 C-25.5625 271.465 -25.5625 270.805 -25.5625 270.125 C-26.614375 269.75375 -26.614375 269.75375 -27.6875 269.375 C-30.93712636 267.96211898 -33.63732472 266.1166087 -36.5625 264.125 C-37.243125 263.815625 -37.92375 263.50625 -38.625 263.1875 C-41.42371838 261.65271895 -43.34507486 259.39928219 -45.5625 257.125 C-46.5525 256.465 -47.5425 255.805 -48.5625 255.125 C-48.5625 254.465 -48.5625 253.805 -48.5625 253.125 C-49.42681641 252.72087891 -49.42681641 252.72087891 -50.30859375 252.30859375 C-52.60173181 251.1043982 -54.56169642 249.74988595 -56.625 248.1875 C-57.29660156 247.68347656 -57.96820312 247.17945313 -58.66015625 246.66015625 C-60.43419473 245.22853998 -62.06135042 243.84126759 -63.5625 242.125 C-63.5625 241.465 -63.5625 240.805 -63.5625 240.125 C-64.1503125 239.86332031 -64.738125 239.60164062 -65.34375 239.33203125 C-70.8189986 236.3534189 -74.74796707 230.92848591 -78.5625 226.125 C-79.2225 225.795 -79.8825 225.465 -80.5625 225.125 C-81.6494503 220.62192018 -82.19520213 217.57965512 -79.9375 213.4375 C-77.84579255 210.26759283 -75.34875887 207.70738627 -72.5625 205.125 C-71.716875 204.238125 -70.87125 203.35125 -70 202.4375 C-67.5625 200.125 -67.5625 200.125 -65.375 199.0625 C-62.97956854 197.82348373 -62.67222262 196.55251824 -61.5625 194.125 C-59.12639837 190.87686449 -56.58398616 187.84433755 -53.5625 185.125 C-52.9025 185.125 -52.2425 185.125 -51.5625 185.125 C-51.2325 184.135 -50.9025 183.145 -50.5625 182.125 C-48.9188186 180.43566078 -47.2482124 178.77240076 -45.5625 177.125 C-44.325 175.6090625 -44.325 175.6090625 -43.0625 174.0625 C-40.73604547 171.32891592 -38.37336656 169.32811163 -35.5625 167.125 C-34.9025 166.135 -34.2425 165.145 -33.5625 164.125 C-32.9025 164.125 -32.2425 164.125 -31.5625 164.125 C-31.2325 163.135 -30.9025 162.145 -30.5625 161.125 C-29.9025 161.125 -29.2425 161.125 -28.5625 161.125 C-28.27375 160.526875 -27.985 159.92875 -27.6875 159.3125 C-26.5625 157.125 -26.5625 157.125 -24.5625 154.125 C-24.39536431 151.49968476 -24.39536431 151.49968476 -24.5625 149.125 C-25.5525 148.795 -26.5425 148.465 -27.5625 148.125 C-29.24609375 146.41796875 -29.24609375 146.41796875 -31 144.3125 C-32.94217334 142.01234132 -34.8407916 139.85384408 -37 137.75 C-38.5625 136.125 -38.5625 136.125 -38.5625 134.125 C-39.2225 134.125 -39.8825 134.125 -40.5625 134.125 C-40.5625 133.465 -40.5625 132.805 -40.5625 132.125 C-41.14515625 131.856875 -41.7278125 131.58875 -42.328125 131.3125 C-44.59036601 130.11019009 -46.36826318 128.78674087 -48.3125 127.125 C-48.92609375 126.609375 -49.5396875 126.09375 -50.171875 125.5625 C-51.5625 124.125 -51.5625 124.125 -51.5625 122.125 C-52.5525 121.795 -53.5425 121.465 -54.5625 121.125 C-54.5625 120.465 -54.5625 119.805 -54.5625 119.125 C-55.42495834 118.75100822 -55.42495834 118.75100822 -56.30484009 118.36946106 C-58.89036974 116.94427255 -60.60877029 115.31198747 -62.68505859 113.21362305 C-63.48624115 112.40906174 -64.28742371 111.60450043 -65.11288452 110.77555847 C-65.970242 109.90474136 -66.82759949 109.03392426 -67.7109375 108.13671875 C-68.60108551 107.24136917 -69.49123352 106.34601959 -70.40835571 105.42353821 C-72.77359523 103.043497 -75.13469334 100.65950821 -77.49346924 98.27307129 C-80.80635183 94.92224156 -84.12431252 91.57647165 -87.44522095 88.2335968 C-89.21102387 86.45560376 -90.97414678 84.67494394 -92.73422241 82.89128113 C-97.73630449 77.84648824 -97.73630449 77.84648824 -103.08447266 73.17895508 C-105.5625 71.125 -105.5625 71.125 -106.625 68.875 C-106.48092756 62.53581265 -103.52279241 56.62268591 -100.5625 51.125 C-99.9025 51.125 -99.2425 51.125 -98.5625 51.125 C-98.48 50.58875 -98.3975 50.0525 -98.3125 49.5 C-96.93318003 45.13215344 -94.12120464 41.03666743 -90.5625 38.125 C-89.9025 38.125 -89.2425 38.125 -88.5625 38.125 C-88.2325 37.135 -87.9025 36.145 -87.5625 35.125 C-86.17282458 33.92482577 -84.78040674 32.72516995 -83.328125 31.6015625 C-81.40315529 30.04398589 -81.40315529 30.04398589 -79.2421875 27.73046875 C-76.47166518 25.03668101 -73.65166569 22.95124935 -70.4375 20.8125 C-69.40367187 20.11511719 -68.36984375 19.41773438 -67.3046875 18.69921875 C-64.5625 17.125 -64.5625 17.125 -61.5625 17.125 C-61.5625 16.465 -61.5625 15.805 -61.5625 15.125 C-59.79494474 14.28473604 -58.02332737 13.45301278 -56.25 12.625 C-55.26386719 12.1609375 -54.27773438 11.696875 -53.26171875 11.21875 C-50.5625 10.125 -50.5625 10.125 -47.5625 10.125 C-47.5625 9.465 -47.5625 8.805 -47.5625 8.125 C-31.34586936 2.5496488 -17.18334999 -0.06376011 0 0 Z " fill="#05B39A" transform="translate(639.5625,466.875)"/>
<path d="M0 0 C4.38462134 0.50109958 6.8000997 1.98295115 10 5 C10 5.66 10 6.32 10 7 C10.86625 7.4021875 10.86625 7.4021875 11.75 7.8125 C14.05550043 9.02929189 16.02056192 10.30333879 18 12 C18 12.66 18 13.32 18 14 C19.32 14.66 20.64 15.32 22 16 C22 16.66 22 17.32 22 18 C22.598125 18.28875 23.19625 18.5775 23.8125 18.875 C26 20 26 20 29 22 C29 22.66 29 23.32 29 24 C30.485 24.495 30.485 24.495 32 25 C32 25.66 32 26.32 32 27 C32.598125 27.268125 33.19625 27.53625 33.8125 27.8125 C35.99847854 28.99917406 37.41332594 30.09599113 39 32 C39 32.66 39 33.32 39 34 C40.65 34.66 42.3 35.32 44 36 C44 36.66 44 37.32 44 38 C44.88558594 38.39251953 44.88558594 38.39251953 45.7890625 38.79296875 C48.11713599 40.0639488 49.56029999 41.39130352 51.375 43.3125 C53.54284994 45.54983231 55.70621989 47.66129965 58.125 49.625 C60.93192518 51.94376428 63.4274707 54.4274707 66 57 C67.09720469 57.90434686 68.20144846 58.80021996 69.3125 59.6875 C70.6428125 60.8321875 70.6428125 60.8321875 72 62 C72 62.66 72 63.32 72 64 C72.598125 64.268125 73.19625 64.53625 73.8125 64.8125 C75.99847854 65.99917406 77.41332594 67.09599113 79 69 C79 69.66 79 70.32 79 71 C79.5775 71.268125 80.155 71.53625 80.75 71.8125 C83.05550043 73.02929189 85.02056192 74.30333879 87 76 C87 76.66 87 77.32 87 78 C87.88171875 78.40798828 87.88171875 78.40798828 88.78125 78.82421875 C90.95748707 79.97747114 92.63836489 81.20895521 94.5 82.8125 C95.0671875 83.29332031 95.634375 83.77414063 96.21875 84.26953125 C98 86 98 86 99.90625 88.4453125 C102.07195037 91.08779019 104.2938364 92.98749955 107 95.0625 C110.21573026 97.53802406 113.28217083 99.97389854 116 103 C116 103.66 116 104.32 116 105 C116.99 105.33 117.98 105.66 119 106 C119 106.66 119 107.32 119 108 C119.99 108.33 120.98 108.66 122 109 C123.82421875 110.77734375 123.82421875 110.77734375 125.6875 112.9375 C126.31011719 113.64777344 126.93273437 114.35804688 127.57421875 115.08984375 C129 117 129 117 129 119 C129.99 119.33 130.98 119.66 132 120 C136 124.34285714 136 124.34285714 136 128 C136.99 128.33 137.98 128.66 139 129 C140.36279297 130.51538086 140.36279297 130.51538086 141.7421875 132.46484375 C142.24911133 133.17817871 142.75603516 133.89151367 143.27832031 134.62646484 C143.80522461 135.38910645 144.33212891 136.15174805 144.875 136.9375 C145.4122168 137.70787598 145.94943359 138.47825195 146.50292969 139.27197266 C156 153.08826646 156 153.08826646 156 159 C156.66 159 157.32 159 158 159 C158.8394882 161.10171867 159.67139656 163.20646625 160.5 165.3125 C160.9640625 166.48425781 161.428125 167.65601563 161.90625 168.86328125 C163 172 163 172 163 175 C163.66 175 164.32 175 165 175 C165.50660156 176.64548828 165.50660156 176.64548828 166.0234375 178.32421875 C166.47385102 179.77867907 166.92437784 181.23310431 167.375 182.6875 C167.59671875 183.40873047 167.8184375 184.12996094 168.046875 184.87304688 C168.9749813 187.8620951 169.91077404 190.78294678 171.1015625 193.6796875 C172.10235859 196.26435218 172.56552034 198.70260574 173 201.4375 C173.51640536 204.48307174 174.06582204 207.19359425 175.0625 210.125 C176.14548665 213.44615907 176.46481849 216.57782184 176.75390625 220.046875 C176.89986068 222.07629767 176.89986068 222.07629767 178 224 C179.37622651 232.2035161 179.14978724 240.58779915 179.125 248.875 C179.12886719 250.16019531 179.13273438 251.44539062 179.13671875 252.76953125 C179.11426575 274.88573425 179.11426575 274.88573425 177 277 C176.45783976 280.22562564 176.03401348 283.46161415 175.59765625 286.703125 C175.04551071 289.74894746 174.23282941 292.17808629 173 295 C171.13515231 300.27751895 169.49190765 305.60618004 168 311 C167.34 311 166.68 311 166 311 C165.86271484 312.27230469 165.86271484 312.27230469 165.72265625 313.5703125 C164.89330449 317.50637113 163.40272503 320.3733263 161.4375 323.875 C160.79683594 325.02742188 160.15617188 326.17984375 159.49609375 327.3671875 C158.75552734 328.67042969 158.75552734 328.67042969 158 330 C157.34 330 156.68 330 156 330 C155.731875 330.721875 155.46375 331.44375 155.1875 332.1875 C153.49282002 336.20121575 152.01498107 339.19322017 148.5625 341.9375 C145.80281334 343.92884712 145.80281334 343.92884712 144 347.1875 C142 350 142 350 139.4375 350.9375 C137 351 137 351 134 350 C134 349.34 134 348.68 134 348 C133.319375 347.79375 132.63875 347.5875 131.9375 347.375 C126.8314621 344.9849397 122.89813919 341.2401473 119.375 336.875 C117.14548816 333.97687894 117.14548816 333.97687894 114.5 332 C111.54946004 329.63956803 109.41540219 326.89848263 107 324 C106.175 323.34 105.35 322.68 104.5 322 C101.54131064 319.63304851 99.39318368 316.93165 97 314 C95.84727328 312.82961549 94.69238461 311.66124101 93.52401733 310.50646973 C91.75643311 308.75923755 90.0036614 306.99777202 88.2512207 305.23535156 C84.42954446 301.39589853 80.60483516 297.55948234 76.77905273 293.72412109 C75.12842598 292.06842956 73.47869263 290.41184689 71.82983398 288.75439453 C69.44748113 286.35996775 67.06196235 283.96873596 64.67578125 281.578125 C63.93620682 280.83338928 63.19663239 280.08865356 62.43464661 279.3213501 C61.75020981 278.63683777 61.06577301 277.95232544 60.3605957 277.24707031 C59.75834671 276.64260071 59.15609772 276.0381311 58.53559875 275.41534424 C57.03728029 273.90308282 57.03728029 273.90308282 55 273 C54.86271484 274.25683594 54.86271484 274.25683594 54.72265625 275.5390625 C53.89195787 279.5174342 52.31535657 282.8126503 50.4375 286.375 C50.10814453 287.01566406 49.77878906 287.65632813 49.43945312 288.31640625 C48.63360518 289.88138632 47.81781507 291.44124021 47 293 C46.34 293 45.68 293 45 293 C44.67 294.65 44.34 296.3 44 298 C43.34 298 42.68 298 42 298 C41.7834375 298.79277344 41.566875 299.58554687 41.34375 300.40234375 C39.57909231 305.12690693 37.08454733 309.2449035 34.5 313.5625 C33.50726803 315.22859668 32.51758387 316.89651391 31.53125 318.56640625 C30.87479492 319.66384155 30.87479492 319.66384155 30.20507812 320.78344727 C28.92949908 323.12967542 27.94506372 325.50440686 27 328 C26.34 328 25.68 328 25 328 C24.67 329.65 24.34 331.3 24 333 C23.34 333 22.68 333 22 333 C21.938125 333.66 21.87625 334.32 21.8125 335 C20.46667481 339.96920068 17.63503558 344.36496442 14 348 C8.54988358 347.79038014 5.23583035 346.38866428 1 343 C-0.35386936 341.34997172 -1.68678142 339.6825613 -3 338 C-4.44389367 336.81279854 -5.88842975 335.62629132 -7.34375 334.453125 C-15.45174311 327.3395084 -15.45174311 327.3395084 -16.51171875 322.81640625 C-16.67285156 322.21699219 -16.83398438 321.61757813 -17 321 C-17.99 320.67 -18.98 320.34 -20 320 C-20 319.34 -20 318.68 -20 318 C-20.99 317.67 -21.98 317.34 -23 317 C-23 316.01 -23 315.02 -23 314 C-23.99 313.67 -24.98 313.34 -26 313 C-26.33 311.35 -26.66 309.7 -27 308 C-27.66 308 -28.32 308 -29 308 C-29.33 306.68 -29.66 305.36 -30 304 C-30.66 304 -31.32 304 -32 304 C-33.38528839 301.47604653 -34.76469683 298.9491691 -36.13671875 296.41796875 C-37.45796472 293.99429952 -38.79334179 291.5825308 -40.14453125 289.17578125 C-40.86749311 287.86735632 -41.59015246 286.55876419 -42.3125 285.25 C-42.66183594 284.63697021 -43.01117188 284.02394043 -43.37109375 283.39233398 C-45.69064705 279.15104448 -46.58124115 275.7337957 -47 271 C-47.66 271 -48.32 271 -49 271 C-52.04578646 262.78636275 -54.78575434 254.60593311 -57.10546875 246.15625 C-57.68760998 244.10223202 -58.32212793 242.06211216 -59.015625 240.04296875 C-60.11068214 236.65785163 -60.86055256 233.30018647 -61.5625 229.8125 C-61.81128906 228.60207031 -62.06007813 227.39164063 -62.31640625 226.14453125 C-63.91440882 217.20456396 -64.19467436 208.1869377 -64.1875 199.125 C-64.18669434 198.04871338 -64.18588867 196.97242676 -64.18505859 195.86352539 C-64.13124497 188.68784829 -63.79794024 181.58161391 -63.125 174.4375 C-63.04660889 173.60041504 -62.96821777 172.76333008 -62.88745117 171.90087891 C-62.34573802 166.78498767 -61.34214676 161.95959334 -60 157 C-59.67467256 155.67929447 -59.35306591 154.35766693 -59.03515625 153.03515625 C-57.49053881 146.70363752 -55.94844669 140.40864494 -53.7734375 134.2578125 C-52.80315166 131.42536191 -51.97347003 128.55872258 -51.125 125.6875 C-49.49473826 120.34420867 -47.51443817 115.27087829 -45.3046875 110.14453125 C-42.9692797 104.51577891 -41.00060364 98.75492792 -39 93 C-38.34 93 -37.68 93 -37 93 C-36.896875 91.99324219 -36.79375 90.98648438 -36.6875 89.94921875 C-36.11093151 85.91628458 -34.68471113 82.5261541 -33 78.8125 C-30.57735179 73.54853533 -30.57735179 73.54853533 -29 68 C-28.34 68 -27.68 68 -27 68 C-26.90203125 67.01386719 -26.8040625 66.02773437 -26.703125 65.01171875 C-26.07394791 60.63277818 -24.50131937 56.85049466 -22.75 52.8125 C-22.43498535 52.06637451 -22.1199707 51.32024902 -21.79541016 50.55151367 C-20.87107928 48.364401 -19.93694663 46.18173239 -19 44 C-15.34575525 35.42579444 -12.05970322 26.80152927 -9 18 C-8.34 18 -7.68 18 -7 18 C-6.89042969 17.43152344 -6.78085937 16.86304688 -6.66796875 16.27734375 C-5.62061834 11.17683242 -4.20728247 6.715558 -2 2 C-1.34 2 -0.68 2 0 2 C0 1.34 0 0.68 0 0 Z " fill="#05B39A" transform="translate(353,141)"/>
<path d="M0 0 C1.11375 0.3403125 1.11375 0.3403125 2.25 0.6875 C2.25 1.3475 2.25 2.0075 2.25 2.6875 C3.57 3.0175 4.89 3.3475 6.25 3.6875 C6.25 4.3475 6.25 5.0075 6.25 5.6875 C7.57 6.3475 8.89 7.0075 10.25 7.6875 C10.25 8.3475 10.25 9.0075 10.25 9.6875 C11.24 10.0175 12.23 10.3475 13.25 10.6875 C13.25 11.3475 13.25 12.0075 13.25 12.6875 C14.24 13.0175 15.23 13.3475 16.25 13.6875 C18.07421875 15.46484375 18.07421875 15.46484375 19.9375 17.625 C20.56011719 18.33527344 21.18273437 19.04554688 21.82421875 19.77734375 C23.25 21.6875 23.25 21.6875 23.25 23.6875 C24.24 24.0175 25.23 24.3475 26.25 24.6875 C27.58895632 26.34965268 28.92130142 28.01713607 30.25 29.6875 C31.70118797 30.84845038 33.15248816 32.00926271 34.60546875 33.16796875 C37.29055513 35.64896305 39.37327403 38.5704322 41.5390625 41.50390625 C43.23589336 43.76979565 43.23589336 43.76979565 45.4609375 45.83984375 C47.25 47.6875 47.25 47.6875 47.25 49.6875 C47.78625 49.89375 48.3225 50.1 48.875 50.3125 C52.16978009 52.22000426 54.84363628 54.73569384 57.25 57.6875 C57.25 58.3475 57.25 59.0075 57.25 59.6875 C58.735 60.1825 58.735 60.1825 60.25 60.6875 C60.25 61.3475 60.25 62.0075 60.25 62.6875 C62.23 63.6775 62.23 63.6775 64.25 64.6875 C64.25 65.3475 64.25 66.0075 64.25 66.6875 C65.735 67.1825 65.735 67.1825 67.25 67.6875 C67.25 68.3475 67.25 69.0075 67.25 69.6875 C68.24 69.6875 69.23 69.6875 70.25 69.6875 C70.25 69.0275 70.25 68.3675 70.25 67.6875 C71.82421875 66.13671875 71.82421875 66.13671875 73.9375 64.375 C76.44802294 62.25105316 78.85823421 60.13248656 81.125 57.75 C83.25 55.6875 83.25 55.6875 85.25 55.6875 C85.45882812 55.14996094 85.66765625 54.61242187 85.8828125 54.05859375 C87.77725156 50.77309516 90.41300673 48.35468418 93.125 45.75 C96.77659907 42.21834397 100.09082385 38.67911566 103.25 34.6875 C104.84765625 33.2109375 104.84765625 33.2109375 106.3125 32.0625 C110.7965364 28.5821502 110.7965364 28.5821502 113.25 23.6875 C116.18300732 22.22099634 117.97037344 22.32309705 121.25 22.6875 C125.3744906 24.70686307 129.22698452 27.19652547 132.25 30.6875 C132.25 31.3475 132.25 32.0075 132.25 32.6875 C133.9 33.3475 135.55 34.0075 137.25 34.6875 C137.25 35.3475 137.25 36.0075 137.25 36.6875 C138.24 37.0175 139.23 37.3475 140.25 37.6875 C141.61639342 39.3271721 142.9449419 40.99860128 144.25 42.6875 C144.9925 43.409375 145.735 44.13125 146.5 44.875 C157.25 55.86931818 157.25 55.86931818 157.25 59.6875 C158.24 60.0175 159.23 60.3475 160.25 60.6875 C162.24396257 63.34833969 164.25 66.29992325 164.25 69.6875 C164.91 69.6875 165.57 69.6875 166.25 69.6875 C180.101077 93.13589686 180.101077 93.13589686 181.25 103.6875 C181.91 103.6875 182.57 103.6875 183.25 103.6875 C184.68082399 107.99449811 185.99189263 112.32696299 187.25 116.6875 C187.55808594 117.73808594 187.86617187 118.78867187 188.18359375 119.87109375 C193.34004206 140.817623 191.84331 163.03861352 183.25 182.6875 C182.59 182.6875 181.93 182.6875 181.25 182.6875 C181.1675 183.409375 181.085 184.13125 181 184.875 C180.09286169 188.27676868 178.64989121 190.14216084 176.25 192.6875 C175.59 192.6875 174.93 192.6875 174.25 192.6875 C173.92 193.6775 173.59 194.6675 173.25 195.6875 C172.59 195.6875 171.93 195.6875 171.25 195.6875 C171.00121094 196.28433594 170.75242187 196.88117188 170.49609375 197.49609375 C169.06681368 200.00965525 167.67041957 201.10340812 165.3125 202.75 C163.29933086 204.16862573 161.44425913 205.49027509 159.71484375 207.24609375 C158.15601118 208.779985 156.6793909 209.67203111 154.75 210.6875 C152.16245527 212.10384028 150.28976369 213.54038033 148.25 215.6875 C147.59 215.6875 146.93 215.6875 146.25 215.6875 C146.25 216.3475 146.25 217.0075 146.25 217.6875 C144.7890625 218.9765625 144.7890625 218.9765625 142.875 220.3125 C142.24851562 220.75851562 141.62203125 221.20453125 140.9765625 221.6640625 C139.25 222.6875 139.25 222.6875 137.25 222.6875 C137.25 223.3475 137.25 224.0075 137.25 224.6875 C136.26 225.0175 135.27 225.3475 134.25 225.6875 C133.22462466 226.66146376 132.22824217 227.6662056 131.25 228.6875 C129.74712315 229.93855791 128.2250183 231.16676898 126.6875 232.375 C125.50994141 233.30892578 125.50994141 233.30892578 124.30859375 234.26171875 C122.25 235.6875 122.25 235.6875 120.25 235.6875 C120.25 236.3475 120.25 237.0075 120.25 237.6875 C118.29402816 239.08462274 116.2840906 240.40677629 114.25 241.6875 C113.280625 242.409375 112.31125 243.13125 111.3125 243.875 C107.81790117 245.94323196 105.29289418 246.53493796 101.25 246.6875 C99.765 245.6975 99.765 245.6975 98.25 244.6875 C98.25 244.0275 98.25 243.3675 98.25 242.6875 C97.26 242.3575 96.27 242.0275 95.25 241.6875 C93.64453125 240.12890625 93.64453125 240.12890625 92.0625 238.25 C91.53269531 237.63253906 91.00289063 237.01507812 90.45703125 236.37890625 C89.25 234.6875 89.25 234.6875 89.25 232.6875 C87.27 231.6975 87.27 231.6975 85.25 230.6875 C85.25 230.0275 85.25 229.3675 85.25 228.6875 C84.26 228.3575 83.27 228.0275 82.25 227.6875 C82.25 227.0275 82.25 226.3675 82.25 225.6875 C81.26 225.3575 80.27 225.0275 79.25 224.6875 C77.91666667 222.6875 76.58333333 220.6875 75.25 218.6875 C73.59211215 217.34326661 71.92423683 216.01131517 70.25 214.6875 C68.49692023 212.80981407 66.82974898 210.87349935 65.1640625 208.91796875 C62.43355255 205.73608879 59.58940015 202.65868726 56.75390625 199.5703125 C55.25 197.6875 55.25 197.6875 55.25 195.6875 C54.26 195.3575 53.27 195.0275 52.25 194.6875 C52.25 194.0275 52.25 193.3675 52.25 192.6875 C51.26 192.3575 50.27 192.0275 49.25 191.6875 C45.25 187.23035714 45.25 187.23035714 45.25 184.6875 C44.59 184.6875 43.93 184.6875 43.25 184.6875 C42.06265471 183.27552182 40.8781006 181.85935328 39.76171875 180.390625 C38.21548553 178.5448721 38.21548553 178.5448721 35.87109375 176.83203125 C33.01859923 174.4981721 30.91059347 172.01144536 28.625 169.125 C25.70449547 165.4097747 25.70449547 165.4097747 22.4765625 161.97265625 C21.25 160.6875 21.25 160.6875 21.25 158.6875 C20.59 158.6875 19.93 158.6875 19.25 158.6875 C19.0953125 157.7284375 19.0953125 157.7284375 18.9375 156.75 C18.710625 156.069375 18.48375 155.38875 18.25 154.6875 C17.26 154.3575 16.27 154.0275 15.25 153.6875 C15.25 153.0275 15.25 152.3675 15.25 151.6875 C14.26 151.3575 13.27 151.0275 12.25 150.6875 C10.42578125 148.47265625 10.42578125 148.47265625 8.5625 145.75 C7.62857422 144.40615234 7.62857422 144.40615234 6.67578125 143.03515625 C5.25 140.6875 5.25 140.6875 5.25 138.6875 C4.59 138.6875 3.93 138.6875 3.25 138.6875 C2.01660156 137.04199219 2.01660156 137.04199219 0.640625 134.734375 C-0.11637695 133.47246338 -0.11637695 133.47246338 -0.88867188 132.18505859 C-1.42041016 131.27836426 -1.95214844 130.37166992 -2.5 129.4375 C-3.04205078 128.52178223 -3.58410156 127.60606445 -4.14257812 126.66259766 C-18.75 101.78515625 -18.75 101.78515625 -18.75 92.6875 C-19.41 92.6875 -20.07 92.6875 -20.75 92.6875 C-21.37967954 90.70981717 -22.00347489 88.73026065 -22.625 86.75 C-22.97304688 85.64785156 -23.32109375 84.54570313 -23.6796875 83.41015625 C-24.03289062 82.18167969 -24.38609375 80.95320312 -24.75 79.6875 C-25.03121704 78.71417725 -25.03121704 78.71417725 -25.31811523 77.72119141 C-27.09347992 70.83121812 -27.08149542 64.01899137 -27.0625 56.9375 C-27.07861328 55.7515625 -27.09472656 54.565625 -27.11132812 53.34375 C-27.12068693 36.19842447 -22.32980142 19.67323757 -10.75 6.6875 C-10.09 6.6875 -9.43 6.6875 -8.75 6.6875 C-8.5025 6.089375 -8.255 5.49125 -8 4.875 C-5.95303605 1.29281309 -4.24120777 -0.48195543 0 0 Z " fill="#06B39A" transform="translate(411.75,692.3125)"/>
<path d="M0 0 C1.94866322 0.26848249 3.90692687 0.46925992 5.8671875 0.6328125 C16.65592538 1.68509026 25.7329581 5.12043305 35.63671875 9.36328125 C35.63671875 10.02328125 35.63671875 10.68328125 35.63671875 11.36328125 C36.46171875 11.40453125 37.28671875 11.44578125 38.13671875 11.48828125 C42.27190124 12.52207687 44.55422262 14.32123314 47.8046875 16.98828125 C49.69606826 18.55892626 49.69606826 18.55892626 52.63671875 19.36328125 C52.63671875 20.02328125 52.63671875 20.68328125 52.63671875 21.36328125 C53.50490234 21.77126953 53.50490234 21.77126953 54.390625 22.1875 C60.2427606 25.25096577 65.06067543 29.65649384 69.63671875 34.36328125 C70.62671875 35.02328125 71.61671875 35.68328125 72.63671875 36.36328125 C72.63671875 37.02328125 72.63671875 37.68328125 72.63671875 38.36328125 C73.62671875 38.69328125 74.61671875 39.02328125 75.63671875 39.36328125 C75.63671875 40.02328125 75.63671875 40.68328125 75.63671875 41.36328125 C76.95671875 42.02328125 78.27671875 42.68328125 79.63671875 43.36328125 C79.63671875 44.02328125 79.63671875 44.68328125 79.63671875 45.36328125 C80.62671875 45.69328125 81.61671875 46.02328125 82.63671875 46.36328125 C82.63671875 47.02328125 82.63671875 47.68328125 82.63671875 48.36328125 C83.29671875 48.36328125 83.95671875 48.36328125 84.63671875 48.36328125 C88.66327302 55.32766481 88.66327302 55.32766481 88.57421875 58.80078125 C88.26484375 59.64640625 87.95546875 60.49203125 87.63671875 61.36328125 C87.1147997 62.967095 86.59405367 64.57129077 86.07421875 66.17578125 C85.59797392 67.57261418 85.11977775 68.96879016 84.63671875 70.36328125 C83.97671875 70.36328125 83.31671875 70.36328125 82.63671875 70.36328125 C82.54261719 71.05808594 82.44851563 71.75289062 82.3515625 72.46875 C81.49008992 75.95700781 80.01696988 78.58069148 78.19921875 81.67578125 C77.58175781 82.74441406 76.96429688 83.81304688 76.328125 84.9140625 C75.76996094 85.72230469 75.21179688 86.53054688 74.63671875 87.36328125 C73.97671875 87.36328125 73.31671875 87.36328125 72.63671875 87.36328125 C72.53093506 88.08112793 72.42515137 88.79897461 72.31616211 89.53857422 C71.56780896 92.64976573 70.41134335 94.82000966 68.765625 97.55859375 C68.19134766 98.52152344 67.61707031 99.48445312 67.02539062 100.4765625 C66.12143555 101.96736328 66.12143555 101.96736328 65.19921875 103.48828125 C64.60044922 104.48988281 64.00167969 105.49148438 63.38476562 106.5234375 C61.1928539 110.18071462 59.00212073 113.81517829 56.63671875 117.36328125 C56.84658904 121.91296935 58.85129195 124.17425619 61.88671875 127.42578125 C62.655 128.26238281 63.42328125 129.09898437 64.21484375 129.9609375 C66.56892427 132.2960335 69.03806449 134.30943637 71.63671875 136.36328125 C75.63671875 140.90382179 75.63671875 140.90382179 75.63671875 143.36328125 C76.29671875 143.36328125 76.95671875 143.36328125 77.63671875 143.36328125 C79.29296875 144.97265625 79.29296875 144.97265625 81.13671875 147.11328125 C81.74515625 147.809375 82.35359375 148.50546875 82.98046875 149.22265625 C84.63671875 151.36328125 84.63671875 151.36328125 85.60546875 153.50390625 C86.92845373 155.88928826 88.20991622 156.1760685 90.63671875 157.36328125 C92.27847992 158.97242465 93.85882463 160.64564864 95.38671875 162.36328125 C96.58554687 163.69359375 96.58554687 163.69359375 97.80859375 165.05078125 C99.63671875 167.36328125 99.63671875 167.36328125 99.63671875 169.36328125 C100.62671875 169.69328125 101.61671875 170.02328125 102.63671875 170.36328125 C102.63671875 171.02328125 102.63671875 171.68328125 102.63671875 172.36328125 C103.95671875 173.02328125 105.27671875 173.68328125 106.63671875 174.36328125 C106.63671875 175.02328125 106.63671875 175.68328125 106.63671875 176.36328125 C107.62671875 176.69328125 108.61671875 177.02328125 109.63671875 177.36328125 C109.63671875 178.02328125 109.63671875 178.68328125 109.63671875 179.36328125 C110.62671875 179.69328125 111.61671875 180.02328125 112.63671875 180.36328125 C113.99499846 182.0096809 115.32926126 183.67623932 116.63671875 185.36328125 C117.29671875 185.69328125 117.95671875 186.02328125 118.63671875 186.36328125 C118.63671875 189.66328125 118.63671875 192.96328125 118.63671875 196.36328125 C117.97671875 196.36328125 117.31671875 196.36328125 116.63671875 196.36328125 C116.57484375 197.02328125 116.51296875 197.68328125 116.44921875 198.36328125 C113.46279075 209.39009231 104.09456248 217.72495133 94.63671875 223.36328125 C88.08786829 226.72922768 81.96081519 228.11148122 74.63671875 228.36328125 C73.72277344 228.40324219 72.80882812 228.44320312 71.8671875 228.484375 C52.19281369 228.93211845 35.92198135 223.75673741 20.63671875 211.36328125 C19.48047414 210.67869819 18.31287339 210.01306261 17.13671875 209.36328125 C14.03335413 207.63843527 11.27588733 205.76252542 8.63671875 203.36328125 C8.63671875 202.70328125 8.63671875 202.04328125 8.63671875 201.36328125 C6.98671875 200.70328125 5.33671875 200.04328125 3.63671875 199.36328125 C3.63671875 198.70328125 3.63671875 198.04328125 3.63671875 197.36328125 C2.64671875 197.03328125 1.65671875 196.70328125 0.63671875 196.36328125 C0.63671875 195.70328125 0.63671875 195.04328125 0.63671875 194.36328125 C-0.26046875 193.96109375 -0.26046875 193.96109375 -1.17578125 193.55078125 C-3.36175979 192.36410719 -4.77660719 191.26729012 -6.36328125 189.36328125 C-6.36328125 188.70328125 -6.36328125 188.04328125 -6.36328125 187.36328125 C-7.35328125 187.03328125 -8.34328125 186.70328125 -9.36328125 186.36328125 C-9.36328125 185.70328125 -9.36328125 185.04328125 -9.36328125 184.36328125 C-10.26046875 183.96109375 -10.26046875 183.96109375 -11.17578125 183.55078125 C-13.36175979 182.36410719 -14.77660719 181.26729012 -16.36328125 179.36328125 C-16.36328125 178.70328125 -16.36328125 178.04328125 -16.36328125 177.36328125 C-17.35328125 177.03328125 -18.34328125 176.70328125 -19.36328125 176.36328125 C-19.36328125 175.70328125 -19.36328125 175.04328125 -19.36328125 174.36328125 C-20.35328125 174.03328125 -21.34328125 173.70328125 -22.36328125 173.36328125 C-23.69661458 171.36328125 -25.02994792 169.36328125 -26.36328125 167.36328125 C-27.14058594 166.74839844 -27.91789062 166.13351562 -28.71875 165.5 C-31.5366745 163.2231836 -33.5655483 160.83312318 -35.80078125 157.98828125 C-38.38255159 154.75459231 -40.93971897 151.66655192 -43.92578125 148.80078125 C-44.73015625 147.99640625 -45.53453125 147.19203125 -46.36328125 146.36328125 C-46.36328125 145.70328125 -46.36328125 145.04328125 -46.36328125 144.36328125 C-46.95625 144.10546875 -47.54921875 143.84765625 -48.16015625 143.58203125 C-50.5398909 142.2655823 -51.87306917 140.93747343 -53.61328125 138.86328125 C-54.1340625 138.25484375 -54.65484375 137.64640625 -55.19140625 137.01953125 C-56.36328125 135.36328125 -56.36328125 135.36328125 -56.36328125 133.36328125 C-57.35328125 133.03328125 -58.34328125 132.70328125 -59.36328125 132.36328125 C-59.36328125 131.70328125 -59.36328125 131.04328125 -59.36328125 130.36328125 C-60.35328125 130.03328125 -61.34328125 129.70328125 -62.36328125 129.36328125 C-63.72967467 127.72360915 -65.05822315 126.05217997 -66.36328125 124.36328125 C-67.50796875 123.21859375 -67.50796875 123.21859375 -68.67578125 122.05078125 C-70.00609375 120.72046875 -70.00609375 120.72046875 -71.36328125 119.36328125 C-71.98203125 118.79996094 -72.60078125 118.23664063 -73.23828125 117.65625 C-77.0307115 113.90204989 -78.84525489 111.29828286 -78.98828125 105.86328125 C-78.66922427 100.89015403 -77.41070489 96.88467513 -75.36328125 92.36328125 C-74.70328125 92.36328125 -74.04328125 92.36328125 -73.36328125 92.36328125 C-73.28078125 91.43515625 -73.19828125 90.50703125 -73.11328125 89.55078125 C-72.380852 84.23793627 -70.29641974 79.33549327 -68.36328125 74.36328125 C-67.70328125 74.36328125 -67.04328125 74.36328125 -66.36328125 74.36328125 C-66.30140625 73.43515625 -66.23953125 72.50703125 -66.17578125 71.55078125 C-65.54571933 66.98283232 -63.54396549 63.1586095 -61.57421875 59.03125 C-60.12724634 55.84324304 -59.19289184 52.75714274 -58.36328125 49.36328125 C-57.70328125 49.36328125 -57.04328125 49.36328125 -56.36328125 49.36328125 C-56.27175781 48.36167969 -56.18023437 47.36007812 -56.0859375 46.328125 C-55.47752472 42.06923555 -53.81174405 38.68887006 -51.80078125 34.92578125 C-51.47142578 34.28962891 -51.14207031 33.65347656 -50.80273438 32.99804688 C-49.99874877 31.44833549 -49.18230459 29.90509803 -48.36328125 28.36328125 C-47.70328125 28.36328125 -47.04328125 28.36328125 -46.36328125 28.36328125 C-46.09515625 27.64140625 -45.82703125 26.91953125 -45.55078125 26.17578125 C-44.36426763 23.36561742 -43.08842486 20.87911568 -41.36328125 18.36328125 C-40.70328125 18.36328125 -40.04328125 18.36328125 -39.36328125 18.36328125 C-38.86828125 16.87828125 -38.86828125 16.87828125 -38.36328125 15.36328125 C-37.70328125 15.36328125 -37.04328125 15.36328125 -36.36328125 15.36328125 C-35.70328125 14.04328125 -35.04328125 12.72328125 -34.36328125 11.36328125 C-33.70328125 11.36328125 -33.04328125 11.36328125 -32.36328125 11.36328125 C-32.03328125 10.37328125 -31.70328125 9.38328125 -31.36328125 8.36328125 C-30.37328125 8.36328125 -29.38328125 8.36328125 -28.36328125 8.36328125 C-28.36328125 7.70328125 -28.36328125 7.04328125 -28.36328125 6.36328125 C-22.34090487 2.82070691 -17.04481962 1.61725411 -10.12109375 0.7578125 C-2.36279368 -0.35208595 -2.36279368 -0.35208595 0 0 Z " fill="#06B39A" transform="translate(258.36328125,465.63671875)"/>
<path d="M0 0 C0 0.33 0 0.66 0 1 C-1.051875 1.28875 -2.10375 1.5775 -3.1875 1.875 C-6.22818711 2.77225193 -9.08712344 3.76423419 -12 5 C-12 4.34 -12 3.68 -12 3 C-12.66 3 -13.32 3 -14 3 C-14.061875 3.61875 -14.12375 4.2375 -14.1875 4.875 C-15 7 -15 7 -17.5625 8.25 C-18.366875 8.4975 -19.17125 8.745 -20 9 C-20.33 7.68 -20.66 6.36 -21 5 C-13.67792164 1.09368028 -8.28451302 -0.14041547 0 0 Z " fill="#10B196" transform="translate(251,467)"/>
<path d="M0 0 C-0.61454696 3.99455527 -2.70646737 6.74466336 -5 10 C-6.32 9.67 -7.64 9.34 -9 9 C-9 6 -9 6 -7.5390625 4.39453125 C-6.59160156 3.61142578 -6.59160156 3.61142578 -5.625 2.8125 C-4.68527344 2.01779297 -4.68527344 2.01779297 -3.7265625 1.20703125 C-2 0 -2 0 0 0 Z " fill="#01B28A" transform="translate(521,724)"/>
<path d="M0 0 C0.33 0 0.66 0 1 0 C1.4375 2.125 1.4375 2.125 1 5 C-1.12689146 7.276147 -3.5023433 9.1458722 -6 11 C-6.62109375 9.140625 -6.62109375 9.140625 -7 7 C-5.0625 4.75 -5.0625 4.75 -3 3 C-2.01 3.33 -1.02 3.66 0 4 C0 2.68 0 1.36 0 0 Z " fill="#27C2AA" transform="translate(900,646)"/>
<path d="M0 0 C0.66 0.66 1.32 1.32 2 2 C1.4225 2.55429687 0.845 3.10859375 0.25 3.6796875 C-0.4925 4.40414062 -1.235 5.12859375 -2 5.875 C-2.7425 6.59429688 -3.485 7.31359375 -4.25 8.0546875 C-6.22293325 9.81170957 -6.22293325 9.81170957 -6 12 C-6.66 12 -7.32 12 -8 12 C-7.7312159 8.05783322 -7.44655191 6.43510186 -4.5625 3.625 C-2 2 -2 2 0 2 C0 1.34 0 0.68 0 0 Z " fill="#3ABCA7" transform="translate(576,663)"/>
<path d="M0 0 C0 0.33 0 0.66 0 1 C-1.5778125 1.433125 -1.5778125 1.433125 -3.1875 1.875 C-6.22818711 2.77225193 -9.08712344 3.76423419 -12 5 C-12 4.34 -12 3.68 -12 3 C-12.66 2.67 -13.32 2.34 -14 2 C-9.07262981 0.02905192 -5.21979128 -0.1799928 0 0 Z " fill="#33C3AC" transform="translate(251,467)"/>
<path d="M0 0 C0.99 0.33 1.98 0.66 3 1 C1.8125 3.4375 1.8125 3.4375 0 6 C-2.6875 6.8125 -2.6875 6.8125 -5 7 C-3.35 4.69 -1.7 2.38 0 0 Z " fill="#10C1A3" transform="translate(400,701)"/>
<path d="M0 0 C0.99 0.33 1.98 0.66 3 1 C1.50902342 4.7952131 -0.75700849 6.61042731 -4 9 C-4 4.31908701 -3.00354129 3.37898396 0 0 Z " fill="#01AC8B" transform="translate(592,646)"/>
<path d="M0 0 C-1.45255699 3.82946843 -3.42895561 5.12050295 -7 7 C-7.33 6.01 -7.66 5.02 -8 4 C-7.34 4 -6.68 4 -6 4 C-5.67 3.01 -5.34 2.02 -5 1 C-3 0 -3 0 0 0 Z " fill="#00AC91" transform="translate(225,480)"/>
<path d="M0 0 C1.32 0.33 2.64 0.66 4 1 C3.01 1.66 2.02 2.32 1 3 C1.33 3.66 1.66 4.32 2 5 C1.34 5 0.68 5 0 5 C0 5.66 0 6.32 0 7 C-1.98 7.99 -1.98 7.99 -4 9 C-3.34 6.69 -2.68 4.38 -2 2 C-1.34 2 -0.68 2 0 2 C0 1.34 0 0.68 0 0 Z " fill="#45C9B3" transform="translate(353,141)"/>
<path d="M0 0 C-0.99 2.97 -1.98 5.94 -3 9 C-5 7 -5 7 -5.3125 4.5 C-5.209375 3.675 -5.10625 2.85 -5 2 C-2 0 -2 0 0 0 Z " fill="#2EBDA4" transform="translate(525,439)"/>
<path d="M0 0 C0.33 0.66 0.66 1.32 1 2 C-0.98 4.97 -2.96 7.94 -5 11 C-5.33 10.34 -5.66 9.68 -6 9 C-3.65625 2.4375 -3.65625 2.4375 0 0 Z " fill="#26BDA2" transform="translate(338,182)"/>
<path d="M0 0 C0.66 0 1.32 0 2 0 C2.33 0.99 2.66 1.98 3 3 C3.66 3.33 4.32 3.66 5 4 C2.03 6.475 2.03 6.475 -1 9 C-1.66 8.67 -2.32 8.34 -3 8 C-2.01 5.36 -1.02 2.72 0 0 Z " fill="#41C8B4" transform="translate(344,159)"/>
<path d="M0 0 C0 0.66 0 1.32 0 2 C-0.9590625 2.433125 -0.9590625 2.433125 -1.9375 2.875 C-4.15206079 3.82823451 -4.15206079 3.82823451 -5 6 C-5.99 6 -6.98 6 -8 6 C-7.6875 4.125 -7.6875 4.125 -7 2 C-4 0 -4 0 0 0 Z " fill="#01AB8B" transform="translate(532,716)"/>
<path d="M0 0 C0.66 0 1.32 0 2 0 C1.38461538 5.53846154 1.38461538 5.53846154 -0.5625 7.875 C-1.036875 8.24625 -1.51125 8.6175 -2 9 C-2.125 5.625 -2.125 5.625 -2 2 C-1.34 1.34 -0.68 0.68 0 0 Z " fill="#05B48B" transform="translate(395,708)"/>
<path d="M0 0 C2.0625 0.4375 2.0625 0.4375 4 1 C4 1.66 4 2.32 4 3 C2.02 3.99 0.04 4.98 -2 6 C-1.125 1.125 -1.125 1.125 0 0 Z " fill="#30C3A9" transform="translate(521,932)"/>
<path d="M0 0 C0.33 0.99 0.66 1.98 1 3 C0.34 3.66 -0.32 4.32 -1 5 C-3.625 4.625 -3.625 4.625 -6 4 C-2.25 0 -2.25 0 0 0 Z " fill="#04AB92" transform="translate(359,681)"/>
<path d="M0 0 C0.99 0.33 1.98 0.66 3 1 C3.33 3.31 3.66 5.62 4 8 C3.34 8 2.68 8 2 8 C0.61061923 6.03852126 -0.7260411 4.03833424 -2 2 C-1.34 2 -0.68 2 0 2 C0 1.34 0 0.68 0 0 Z " fill="#079F8D" transform="translate(446,446)"/>
<path d="M0 0 C0.33 0 0.66 0 1 0 C0.4140625 6.15234375 0.4140625 6.15234375 0 8 C-0.99 8.495 -0.99 8.495 -2 9 C-2.125 5.625 -2.125 5.625 -2 2 C-1.34 1.34 -0.68 0.68 0 0 Z " fill="#04C0A3" transform="translate(394,436)"/>
<path d="M0 0 C0.66 0.33 1.32 0.66 2 1 C1.75 3.375 1.75 3.375 1 6 C-1.0625 7.3125 -1.0625 7.3125 -3 8 C-2.01 5.36 -1.02 2.72 0 0 Z " fill="#2EB9A7" transform="translate(313,238)"/>
<path d="M0 0 C2.125 0.9375 2.125 0.9375 4 2 C3.67 2.99 3.34 3.98 3 5 C-0.875 3.25 -0.875 3.25 -2 1 C-1.34 0.67 -0.68 0.34 0 0 Z " fill="#07BFA2" transform="translate(595,721)"/>
</svg>
