<?xml version="1.0" encoding="UTF-8"?>
<svg version="1.1" xmlns="http://www.w3.org/2000/svg" width="758" height="758">
<path d="M0 0 C250.14 0 500.28 0 758 0 C758 250.14 758 500.28 758 758 C507.86 758 257.72 758 0 758 C0 507.86 0 257.72 0 0 Z " fill="#F1F2F6" transform="translate(0,0)"/>
<path d="M0 0 C0.79825195 0.22042969 1.59650391 0.44085938 2.41894531 0.66796875 C25.65658801 7.29477293 44.0147174 19.12041018 61.51318359 35.60595703 C63.92374409 37.86610488 66.37058438 40.08633596 68.8125 42.3125 C75.92401769 48.82231891 82.95881128 55.41434434 90 62 C97.15009411 68.68469261 104.30164016 75.36725714 111.5 82 C116.14014949 86.27554597 120.76340982 90.56866311 125.375 94.875 C126.30493774 95.74306274 126.30493774 95.74306274 127.25366211 96.62866211 C130.53122714 99.6895566 133.80481101 102.75461248 137.07421875 105.82421875 C137.74211426 106.45021973 138.41000977 107.0762207 139.09814453 107.72119141 C140.36734539 108.91088975 141.63533592 110.10188121 142.90185547 111.29443359 C145.67630129 113.89321331 148.46591396 116.400247 151.43359375 118.77734375 C152.28050781 119.51082031 153.12742187 120.24429688 154 121 C154 121.66 154 122.32 154 123 C152.52563477 124.3059082 152.52563477 124.3059082 150.44140625 125.80078125 C149.67199707 126.35878418 148.90258789 126.91678711 148.10986328 127.49169922 C147.2692334 128.09256348 146.42860352 128.69342773 145.5625 129.3125 C143.79985194 130.59116784 142.03815059 131.87114163 140.27734375 133.15234375 C139.38644043 133.79929199 138.49553711 134.44624023 137.57763672 135.11279297 C133.88657971 137.81518648 130.25085168 140.58601779 126.625 143.375 C125.94171631 143.8994873 125.25843262 144.42397461 124.55444336 144.96435547 C123.12713451 146.06031007 121.70013926 147.15667318 120.2734375 148.25341797 C107.75243271 157.8727552 95.18765044 167.42406541 82.4375 176.73828125 C79.57841 178.82880532 76.74664718 180.94834666 73.9375 183.10546875 C66.28230178 188.94568625 58.99439707 193.40224117 50 197 C49.28585937 197.31453125 48.57171875 197.6290625 47.8359375 197.953125 C38.260578 201.9724117 27.74115832 202.32633161 17.5 202.25 C16.46230469 202.25773438 15.42460937 202.26546875 14.35546875 202.2734375 C-21.19888457 202.18488369 -51.28081047 183.48310029 -75.875 159.25 C-84 150.95212766 -84 150.95212766 -84 147.78515625 C-82.49599585 143.59626969 -79.57187315 141.19533924 -76.375 138.1875 C-75.08022098 136.93415909 -73.78722942 135.67896881 -72.49609375 134.421875 C-71.8810498 133.82568359 -71.26600586 133.22949219 -70.63232422 132.61523438 C-68.79874991 130.80085693 -67.09612499 128.91265648 -65.4375 126.9375 C-61.80644938 122.64121873 -57.7828968 118.75688088 -53.78613281 114.80566406 C-49.65480783 110.70328006 -45.72248087 106.48051334 -42 102 C-45.87557306 97.23858166 -50.04514165 92.84483408 -54.375 88.5 C-54.90375732 87.96673096 -55.43251465 87.43346191 -55.97729492 86.8840332 C-58.80069509 84.07091708 -61.686314 81.38205407 -64.71337891 78.78881836 C-68.98861324 75.06210419 -73.0061129 71.1218332 -77 67.09765625 C-77.7211499 66.3750914 -78.4422998 65.65252655 -79.18530273 64.9080658 C-81.45925415 62.62857396 -83.72967954 60.3456076 -86 58.0625 C-87.55315235 56.50432494 -89.10653567 54.94638007 -90.66015625 53.38867188 C-94.44277586 49.59510241 -98.2225169 45.79868385 -102 42 C-96.8844941 25.67033486 -83.08160369 13.48461 -68.33984375 5.68359375 C-63.95028601 3.47084593 -59.6922285 1.47837336 -55 0 C-54.06027344 -0.29777344 -53.12054688 -0.59554688 -52.15234375 -0.90234375 C-35.67865314 -5.24595355 -16.34681855 -4.56760612 0 0 Z " fill="#04B39A" transform="translate(477,333)"/>
<path d="M0 0 C9.77307908 8.21827105 19.03681023 17.01766723 28.36132812 25.73632812 C32.39392281 29.50583815 36.43979557 33.26025567 40.5 37 C45.82755903 41.90758825 51.12773066 46.84384118 56.41625977 51.79345703 C59.35579113 54.54225689 62.30122095 57.28300184 65.27734375 59.9921875 C68.5447261 62.96692342 71.78099764 65.97300198 75 69 C75.64114746 69.60038086 76.28229492 70.20076172 76.94287109 70.81933594 C86.73229324 80.05747263 95.03713012 89.45721237 102 101 C102.37060547 101.61166016 102.74121094 102.22332031 103.12304688 102.85351562 C119.8073076 130.94220773 127.85580913 168.55016094 119.9765625 200.65625 C119.65429688 201.7596875 119.33203125 202.863125 119 204 C118.63648438 205.2684375 118.27296875 206.536875 117.8984375 207.84375 C113.64706774 221.90287391 106.73200584 233.91841875 96 244 C92.10265486 242.40624679 89.65614964 239.89102241 86.71240234 236.92358398 C86.19809158 236.40795898 85.68378082 235.89233398 85.15388489 235.36108398 C83.45991935 233.6606425 81.77304091 231.95334131 80.0859375 230.24609375 C78.90868272 229.06256712 77.73091034 227.87955514 76.55264282 226.69703674 C73.45520167 223.58630385 70.36337993 220.47005025 67.27313232 217.35217285 C62.3208895 212.35677565 57.36188048 207.36811729 52.39964676 202.38264656 C50.66559498 200.63835257 48.93498475 198.89069635 47.2046814 197.14268494 C46.14617196 196.07734967 45.08755365 195.01212258 44.02880859 193.94702148 C43.10377533 193.0137352 42.17874207 192.08044891 41.22567749 191.11888123 C39.18817562 188.97207983 39.18817562 188.97207983 37 188 C36.73300293 188.87132568 36.46600586 189.74265137 36.19091797 190.64038086 C35.02978785 193.91596747 33.64254141 196.72631447 31.9453125 199.75390625 C31.3356665 200.84662842 30.72602051 201.93935059 30.09790039 203.06518555 C29.44043832 204.2310537 28.78280135 205.39682324 28.125 206.5625 C27.45334211 207.76127715 26.78204021 208.96025381 26.11108398 210.15942383 C20.14203164 220.81142058 14.09419401 231.41915594 8 242 C2.50902098 240.51308112 -0.81493977 236.68156805 -4.6875 232.75 C-5.39793457 232.02981689 -6.10836914 231.30963379 -6.84033203 230.56762695 C-22.27612551 214.61426595 -32.56768401 195.17088913 -39 174 C-39.29729004 173.0416626 -39.29729004 173.0416626 -39.60058594 172.06396484 C-50.72031244 135.65764273 -42.61480404 103.82607086 -28.75 69.625 C-27.86694426 67.43452259 -26.98438279 65.24384586 -26.10229492 63.05297852 C-24.29950825 58.57861078 -22.4929115 54.10581034 -20.68310547 49.63427734 C-18.50486815 44.25164371 -16.33483418 38.86576201 -14.16879272 33.47821045 C-12.59184017 29.55643347 -11.01234335 25.63568544 -9.43200684 21.715271 C-8.68720603 19.86723756 -7.94298156 18.01897174 -7.19934082 16.17047119 C-6.17325329 13.62170312 -5.14380273 11.0743217 -4.11328125 8.52734375 C-3.81007462 7.77254227 -3.50686798 7.01774078 -3.19447327 6.24006653 C-1.11454021 1.11454021 -1.11454021 1.11454021 0 0 Z " fill="#04B39A" transform="translate(249,100)"/>
<path d="M0 0 C3.91209308 1.59415503 6.37218086 4.13893332 9.3125 7.125 C9.80105469 7.62 10.28960937 8.115 10.79296875 8.625 C14.04244617 11.94324943 17.11374205 15.37381279 20.125 18.90625 C22.93600311 22.04520347 25.95267797 24.97350681 28.95092773 27.93139648 C32.19007507 31.14381542 35.20688322 34.47213007 38.1640625 37.94140625 C41.91417982 42.14632503 45.98117205 46.0539476 50 50 C55.38031547 45.56298659 60.14944536 40.80941353 64.875 35.6875 C69.9494462 30.23361217 75.04811688 24.84912225 80.3984375 19.6640625 C82.20318989 17.88730811 82.20318989 17.88730811 84 15 C88.753344 17.16634705 92.19199814 20.48492136 96 24 C96.64195312 24.5878125 97.28390625 25.175625 97.9453125 25.78125 C117.25881058 44.23463278 132.56142838 71.45722217 134.203125 98.32421875 C134.3920055 111.8763944 131.86160916 125.02930799 122.375 135.25 C116.48612538 140.79875809 109.84662336 145.41491353 103.296875 150.140625 C96.67701792 154.92744415 90.21981607 159.92562238 83.76660156 164.93383789 C82.50541504 165.9043811 82.50541504 165.9043811 81.21875 166.89453125 C80.47560547 167.47050049 79.73246094 168.04646973 78.96679688 168.63989258 C77 170 77 170 74 171 C70.16521524 167.25485956 66.37020345 163.50480836 62.875 159.4375 C59.3998616 155.39645604 55.77002059 151.51202763 52.125 147.625 C47.44924394 142.63650685 42.82289045 137.6130108 38.265625 132.515625 C35.57619745 129.52943303 32.85304431 126.57587426 30.125 123.625 C29.61638428 123.07295898 29.10776855 122.52091797 28.58374023 121.95214844 C26.13257535 119.29396868 23.67105988 116.64810022 21.17578125 114.03125 C5.71287934 97.61983913 -6.60071121 78.79670416 -13 57 C-13.24363281 56.18015625 -13.48726563 55.3603125 -13.73828125 54.515625 C-17.11865072 40.81018143 -16.23597617 23.92079317 -9.57421875 11.4375 C-6.8467539 7.21432862 -3.49842705 3.59391761 0 0 Z " fill="#05B39A" transform="translate(287,487)"/>
<path d="M0 0 C3.15817196 2.1706166 6.09296841 4.5052763 9 7 C10.21623047 8.01707031 10.21623047 8.01707031 11.45703125 9.0546875 C24.40285955 20.23065601 24.40285955 20.23065601 28 27 C27.12361597 33.05420398 22.89726204 38.7564393 19.875 44 C19.29476074 45.02005127 18.71452148 46.04010254 18.11669922 47.09106445 C15.56025259 51.57851974 12.98364008 56.05084795 10.328125 60.48046875 C9.94930176 61.11919922 9.57047852 61.75792969 9.18017578 62.41601562 C8.19570806 64.0687916 7.19607873 65.71251042 6.1953125 67.35546875 C4.87371371 69.82086838 4.87371371 69.82086838 4.953125 72.00390625 C6.5912199 75.12728868 9.09221666 77.35408277 11.625 79.75 C12.73106807 80.82356533 13.83524398 81.89908361 14.9375 82.9765625 C15.46988281 83.49637695 16.00226563 84.01619141 16.55078125 84.55175781 C18.3352652 86.33503928 19.99256319 88.2021778 21.625 90.125 C25.05908032 94.16213832 28.81745462 97.8317452 32.5859375 101.5546875 C35.27777224 104.281368 37.77299251 107.12861892 40.26171875 110.0390625 C43.34539793 113.5177298 46.67551028 116.75322563 50 120 C47.76720159 128.7079138 42.33380266 135.92316636 35 141 C28.63277784 144.61517339 23.01663154 145.68557255 15.75 145.5625 C14.82832031 145.55154297 13.90664062 145.54058594 12.95703125 145.52929688 C5.18202156 145.28394243 -1.11449436 143.71454909 -8 140 C-9.0621875 139.43023437 -10.124375 138.86046875 -11.21875 138.2734375 C-25.72918536 129.87811419 -36.88684752 118.36558712 -48 106 C-48.81210938 105.10152344 -49.62421875 104.20304687 -50.4609375 103.27734375 C-51.88959045 101.69138425 -53.31543356 100.10288853 -54.73828125 98.51171875 C-57.4065063 95.54856036 -60.10598668 92.61565996 -62.8125 89.6875 C-63.31491211 89.14383789 -63.81732422 88.60017578 -64.33496094 88.04003906 C-66.96140073 85.19987754 -69.59114738 82.3628085 -72.22265625 79.52734375 C-74.27159897 77.31907373 -76.31297861 75.10422985 -78.34765625 72.8828125 C-79.92060749 71.17318361 -81.50686592 69.47539845 -83.12109375 67.8046875 C-84.8125 66 -84.8125 66 -87 63 C-86.63404618 59.54140661 -85.52278266 56.4923175 -84.23754883 53.27661133 C-83.87659622 52.36829056 -83.51564362 51.45996979 -83.14375305 50.52412415 C-82.55632576 49.06778816 -82.55632576 49.06778816 -81.95703125 47.58203125 C-81.55095139 46.56960861 -81.14487152 45.55718597 -80.72648621 44.51408386 C-79.86545644 42.37231108 -79.002061 40.23148804 -78.13647461 38.09155273 C-76.82574789 34.8453107 -75.52873945 31.59381487 -74.23242188 28.34179688 C-73.39146348 26.25487026 -72.54969199 24.16827107 -71.70703125 22.08203125 C-71.32553421 21.12126175 -70.94403717 20.16049225 -70.55097961 19.17060852 C-65.62343418 7.08329273 -59.60240164 -3.69096866 -47.375 -9.5 C-31.04931533 -15.16091852 -13.9041992 -8.67636705 0 0 Z " fill="#05B39A" transform="translate(214,340)"/>
</svg>
