<svg version="1.1" id="svg8" inkscape:version="0.92.3 (2405546, 2018-03-11)" xmlns:cc="http://creativecommons.org/ns#" xmlns:dc="http://purl.org/dc/elements/1.1/" xmlns:inkscape="http://www.inkscape.org/namespaces/inkscape" xmlns:rdf="http://www.w3.org/1999/02/22-rdf-syntax-ns#" xmlns:sodipodi="http://sodipodi.sourceforge.net/DTD/sodipodi-0.dtd" xmlns:svg="http://www.w3.org/2000/svg" xmlns="http://www.w3.org/2000/svg" xmlns:xlink="http://www.w3.org/1999/xlink" x="0px" y="0px" viewBox="0 0 115 75.3" style="enable-background:new 0 0 115 75.3;" xml:space="preserve">
 <style type="text/css">
  .st0{fill:#FBC34E;}
	.st1{fill:#FFFFFF;}
 </style>
 <sodipodi:namedview bordercolor="#666666" borderopacity="1.0" fit-margin-bottom="0" fit-margin-left="0" fit-margin-right="0" fit-margin-top="0" id="base" inkscape:current-layer="layer1" inkscape:cx="32.254574" inkscape:cy="-82.928703" inkscape:document-units="mm" inkscape:pageopacity="0" inkscape:pageshadow="2" inkscape:window-height="1001" inkscape:window-maximized="1" inkscape:window-width="1920" inkscape:window-x="-9" inkscape:window-y="-9" inkscape:zoom="0.49497475" pagecolor="#00ffff" showgrid="false">
 </sodipodi:namedview>
 <g id="layer1" transform="translate(-27.120262,-129.53205)" inkscape:groupmode="layer" inkscape:label="Layer 1">
  <g id="g697" transform="matrix(1.356331,0,0,1.356331,20.338607,122.74991)">
   <path id="path681" inkscape:connector-curvature="0" class="st0" d="M89.7,19.8C90.7,13.6,85.1,5,69.6,5H31.1
			C20.6,5,14,12.2,12.8,19.5L5,60.5c6.9,0,52,0,51.9,0h2.9C76,60.4,85.3,56.8,87,45.1c1.1-7.9-5.8-13-11.5-14.1
			C81.3,30,88.2,28,89.7,19.8z">
   </path>
   <path id="path683" inkscape:connector-curvature="0" class="st1" d="M53.5,22.2c-3.9,5-18.2,22.2-21.1,25.5
			c-6.4,7.3-19.7,6.2-19.8,6c0,0,4.8-22.6,6.3-29c4.3-17.4,18.9-13.2,18.9-13.2S34,12,31.3,15.5c-2.8,3.6-6,21-7.8,29.1
			c8.4-9.8,19.9-22.5,21.9-24.9C53.8,9.6,66.9,11,66.9,11S61.8,11.7,53.5,22.2z">
   </path>
  </g>
 </g>
</svg>