<svg version="1.1" id="Layer_1" xmlns="http://www.w3.org/2000/svg" xmlns:xlink="http://www.w3.org/1999/xlink" x="0px" y="0px" viewBox="0 0 47.9 101.3" style="enable-background:new 0 0 47.9 101.3;" xml:space="preserve">
 <style type="text/css">
  .st0{fill:#A73439;}
	.st1{fill:#E1251B;}
 </style>
 <g>
  <path class="st0" d="M20.3,52.2c1.1-1,0.5-2.2-0.1-3c-0.4-0.5-0.7-0.8-0.8-0.9l-4.6,3.9l2.8,2.4L20.3,52.2z">
  </path>
  <path class="st1" d="M19.9,72.4c0.1,0.1,0.3,0.2,0.4,0.3c0.2,0.1,0.3,0.1,0.5,0.1c0.2,0,0.3,0,0.5-0.1c0.2-0.1,0.3-0.2,0.4-0.3
		c0.1-0.1,0.2-0.3,0.3-0.4c0.1-0.2,0.1-0.3,0.1-0.5v-5.2V61c0-0.8-0.2-1.5-0.4-2.1c-0.3-0.7-0.7-1.2-1.1-1.7L2.2,41.4
		c-0.1-0.1-0.3-0.2-0.4-0.3C1.6,41,1.5,41,1.3,41c-0.2,0-0.4,0-0.5,0.1c-0.2,0.1-0.3,0.2-0.4,0.3c-0.1,0.1-0.2,0.3-0.3,0.4
		C0,41.9,0,42.1,0,42.3v10.5c0,0.8,0.1,1.5,0.4,2.1c0.3,0.6,0.7,1.2,1.1,1.7L19.9,72.4z">
  </path>
  <path class="st0" d="M5.6,60.1L5.6,60.1l-3.7,3.2c-0.4,0.4-0.6,0.7-0.6,1.1v0.2l0,0.1c0,0.1,0,0.1,0,0.1c0,0,0,0.1,0,0.1
		c0,0.1,0,0.2,0.1,0.3c0,0,0,0,0,0c0,0.1,0.1,0.2,0.1,0.4l0,0c0.1,0.1,0.1,0.2,0.2,0.3c0,0,0,0,0,0c0.1,0.1,0.2,0.2,0.2,0.3
		c0.1,0.1,0.2,0.2,0.2,0.3c0,0,0,0,0,0c0.1,0.1,0.1,0.2,0.2,0.2c0.2,0.2,0.3,0.3,0.4,0.4l5.5-4.8v0L5.6,60.1z">
  </path>
  <path class="st1" d="M21.7,84.2c-0.3-0.7-0.7-1.2-1.1-1.7L2.8,67.2c-0.1,0-0.2-0.2-0.3-0.3l0,0c-0.1-0.1-0.1-0.1-0.2-0.2
		c0,0,0,0-0.1-0.1C2.1,66.5,2,66.4,2,66.3c-0.1-0.1-0.1-0.2-0.2-0.3c0,0,0,0,0,0c-0.1-0.1-0.1-0.2-0.2-0.3l0,0
		c0-0.1-0.1-0.2-0.1-0.3c0,0,0,0,0,0c0-0.1-0.1-0.2-0.1-0.3l0,0c0,0,0,0,0-0.1c0,0,0-0.1,0-0.1l0-0.1v-0.2c0-0.4,0.2-0.8,0.6-1.1
		l-0.2,0.1c0,0-0.1,0.1-0.1,0.1c-0.2,0.2-0.5,0.6-0.8,1.2l0,0c-0.3,0.7-0.6,1.8-0.7,3.2c0,0.2,0,0.3,0,0.5c0,0.2,0,0.4,0,0.6
		c0,0.1,0,12.3,0,12.3c0,0.7,0.2,1.5,0.4,2.1c0.3,0.6,0.7,1.2,1.1,1.7l18.3,15.8c0.1,0.1,0.3,0.2,0.4,0.3c0.2,0.1,0.3,0.1,0.5,0.1
		c0.2,0,0.4,0,0.5-0.1c0.1-0.1,0.3-0.2,0.4-0.3c0.1-0.1,0.2-0.3,0.3-0.4c0.1-0.2,0.1-0.3,0.1-0.5V86.3C22.1,85.6,22,84.9,21.7,84.2">
  </path>
  <path class="st1" d="M21.7,32c-0.3-0.7-0.7-1.2-1.1-1.7L2.2,14.5c-0.1-0.1-0.3-0.2-0.4-0.3c-0.2-0.1-0.3-0.1-0.5-0.1
		c-0.2,0-0.4,0-0.5,0.1c-0.2,0.1-0.3,0.2-0.4,0.3c-0.1,0.1-0.2,0.3-0.3,0.4C0,15.1,0,15.3,0,15.4v6.8v6.8c0,0.8,0.1,1.5,0.4,2.1
		c0.3,0.7,0.7,1.2,1.1,1.7l17.8,15.3c0.1,0.1,0.2,0.2,0.3,0.3c0.1,0.2,0.3,0.4,0.5,0.6c0.3,0.4,0.6,0.9,0.7,1.5
		c0.1,0.5,0,1.1-0.6,1.6c0,0,0.5-0.4,1-1.5l0,0c0.3-0.7,0.6-1.8,0.7-3.2c0-0.2,0-0.3,0-0.5c0-0.2,0-0.4,0-0.6v-6.2c0-3,0-6.1,0-6.1
		C22.1,33.4,21.9,32.7,21.7,32">
  </path>
  <path class="st0" d="M27.7,72.6v9.6l3.6-3.1v-9.5L31,69.8l-3,2.6C27.9,72.5,27.8,72.5,27.7,72.6">
  </path>
  <path class="st0" d="M31.3,45.9L31.1,46L28,48.7c-0.1,0.1-0.2,0.2-0.3,0.2l0,0v7.9l3.6-3.1V45.9z">
  </path>
  <path class="st1" d="M47.2,49.3c0.4-0.6,0.7-1.3,0.7-2.3V15.4c0-0.2,0-0.4-0.1-0.5c-0.1-0.2-0.2-0.3-0.3-0.4
		c-0.1-0.1-0.3-0.2-0.4-0.3C47,14.1,46.8,14,46.6,14c-0.2,0-0.4,0-0.5,0.1c-0.2,0.1-0.3,0.2-0.4,0.3L27.3,30.2
		c-0.5,0.5-0.9,1.1-1.1,1.7c-0.3,0.7-0.4,1.4-0.4,2.1v13.7c0,0.2,0,0.4,0.1,0.5c0.1,0.2,0.2,0.3,0.3,0.4c0.1,0.1,0.3,0.2,0.4,0.3
		c0.2,0.1,0.3,0.1,0.5,0.1c0.2,0,0.4,0,0.5-0.1c0,0,0.1,0,0.1-0.1c0.1-0.1,0.2-0.1,0.3-0.2l3.1-2.6L42,36.6c0.1-0.1,0.3-0.2,0.4-0.3
		c0.2-0.1,0.3-0.1,0.5-0.1c0.2,0,0.4,0,0.5,0.1c0.2,0.1,0.3,0.2,0.4,0.3c0.1,0.1,0.2,0.3,0.3,0.4c0.1,0.2,0.1,0.3,0.1,0.5v2.5
		c0,0.8-0.2,1.5-0.4,2.1c-0.3,0.7-0.7,1.2-1.1,1.7l-11.4,9.8v0l-3.6,3.1l-0.4,0.3c-0.5,0.5-0.9,1.1-1.1,1.7
		c-0.3,0.6-0.4,1.4-0.4,2.1v10.5c0,0.2,0,0.4,0.1,0.5c0.1,0.2,0.2,0.3,0.3,0.4c0.1,0.1,0.3,0.2,0.4,0.3c0.2,0.1,0.3,0.1,0.5,0.1
		c0.2,0,0.4,0,0.5-0.1c0,0,0.1,0,0.1,0c0.1-0.1,0.2-0.1,0.3-0.2l3-2.6l11-9.4c0.1-0.1,0.3-0.2,0.4-0.3c0.2-0.1,0.3-0.1,0.5-0.1
		c0.2,0,0.4,0,0.5,0.1c0.2,0.1,0.3,0.2,0.4,0.3c0.1,0.1,0.2,0.3,0.3,0.4c0.1,0.2,0.1,0.3,0.1,0.5v4.1c0,0.8-0.1,1.5-0.4,2.1
		c-0.3,0.7-0.7,1.2-1.1,1.7L27.3,82.5c-0.5,0.5-0.9,1.1-1.1,1.7c-0.3,0.7-0.4,1.4-0.4,2.1V100c0,0.2,0,0.4,0.1,0.5
		c0.1,0.2,0.2,0.3,0.3,0.4c0.1,0.1,0.3,0.2,0.4,0.3c0.2,0.1,0.3,0.1,0.5,0.1c0.2,0,0.4,0,0.5-0.1c0.2-0.1,0.3-0.2,0.4-0.3l18.3-15.8
		c0.5-0.5,0.9-1.1,1.2-1.7c0.3-0.6,0.4-1.4,0.4-2.1V51.6c0-0.1-0.1-0.3-0.1-0.4c-0.1-0.1-0.1-0.3-0.2-0.4c-0.1-0.1-0.3-0.2-0.4-0.3
		c-0.2-0.1-0.3-0.1-0.5-0.1c-0.2,0-0.4,0-0.5,0.1c-0.2,0.1-0.3,0.1-0.3,0.1C46.3,50.2,46.7,49.8,47.2,49.3">
  </path>
  <path class="st1" d="M22,7.7c0-0.1-0.1-0.1-0.2-0.2l-8.6-7.4c-0.1,0-0.1-0.1-0.2-0.1c-0.1,0-0.1,0-0.2,0c0,0-0.1,0-0.1,0l-0.1,0
		c-0.1,0.1-0.2,0.2-0.3,0.3c-0.1,0.1-0.1,0.2-0.1,0.3v5.5c0,0.1,0,0.2,0.1,0.3c0,0.1,0.1,0.2,0.2,0.2l2.7,2.3V14l-1-0.9
		c-0.1,0-0.1-0.1-0.2-0.1c-0.1,0-0.1,0-0.2,0c0,0-0.1,0-0.1,0c0,0-0.1,0-0.1,0c-0.1,0.1-0.2,0.2-0.3,0.3c-0.1,0.1-0.1,0.2-0.1,0.3
		v5.1c0,0.1,0,0.2,0.1,0.3c0,0.1,0.1,0.2,0.2,0.2l6.2,5.3c0.1,0,0.1,0.1,0.2,0.1c0.1,0,0.1,0,0.2,0c0,0,0.1,0,0.1,0c0,0,0.1,0,0.1,0
		c0.1,0,0.2-0.1,0.3-0.2c0.1-0.1,0.1-0.2,0.1-0.3V19c0-0.1,0-0.2-0.1-0.3c0-0.1-0.1-0.2-0.2-0.2l-1.2-1v-5.1l1.9,1.6
		c0.1,0,0.1,0.1,0.2,0.1c0.1,0,0.1,0,0.2,0c0,0,0.1,0,0.1,0c0,0,0.1,0,0.1,0c0.1-0.1,0.2-0.1,0.3-0.2c0.1-0.1,0.1-0.2,0.1-0.3V8
		C22.1,7.9,22.1,7.8,22,7.7">
  </path>
  <path class="st1" d="M35.3,6.7c0.1-0.1,0.1-0.1,0.2-0.2c0-0.1,0.1-0.2,0.1-0.3V0.7c0-0.1,0-0.2-0.1-0.3c-0.1-0.1-0.2-0.2-0.3-0.2
		c0,0-0.1,0-0.1,0c0,0-0.1,0-0.1,0c-0.1,0-0.1,0-0.2,0c-0.1,0-0.1,0.1-0.2,0.1L26,7.5c-0.1,0.1-0.1,0.1-0.2,0.2
		c0,0.1-0.1,0.2-0.1,0.3v17.4c0,0.1,0,0.2,0.1,0.3c0.1,0.1,0.2,0.2,0.3,0.2c0,0,0.1,0,0.1,0c0,0,0.1,0,0.1,0c0.1,0,0.1,0,0.2,0
		c0.1,0,0.1-0.1,0.2-0.1l8.5-7.3c0.1-0.1,0.1-0.1,0.2-0.2c0-0.1,0.1-0.2,0.1-0.3v-5.2c0-0.1,0-0.2-0.1-0.3c-0.1-0.1-0.2-0.2-0.3-0.2
		c0,0-0.1,0-0.1,0c0,0-0.1,0-0.1,0c-0.1,0-0.1,0-0.2,0c-0.1,0-0.1,0.1-0.2,0.1l-4.7,4v-5L35.3,6.7z">
  </path>
 </g>
</svg>